# This file uses centimeters as units for non-parametric coordinates.

mtllib enemy_body.mtl
g default
v 0.872937 1.692706 -3.168395
v 0.745138 1.943212 -3.155918
v 0.546088 2.142017 -3.146016
v 0.295270 2.269656 -3.139662
v 0.017237 2.313640 -3.137475
v -0.260797 2.269656 -3.139662
v -0.511614 2.142021 -3.146020
v -0.710665 1.943212 -3.155918
v -0.838463 1.692706 -3.168395
v -0.882498 1.415014 -3.182213
v -0.838463 1.137323 -3.196036
v -0.710665 0.886816 -3.208514
v -0.511614 0.688020 -3.218413
v -0.260797 0.560372 -3.224771
v 0.017237 0.516395 -3.226952
v 0.295270 0.560373 -3.224770
v 0.546087 0.688020 -3.218411
v 0.745138 0.886816 -3.208514
v 0.872936 1.137323 -3.196036
v 0.916971 1.415014 -3.182213
v 1.671825 4.437400 -0.366279
v 1.424713 4.430840 -0.851218
v 1.039828 4.425633 -1.236068
v 0.554845 4.422288 -1.483157
v 0.017237 4.421134 -1.568295
v -0.520371 4.422288 -1.483157
v -1.005354 4.425633 -1.236067
v -1.390239 4.430840 -0.851218
v -1.637351 4.437400 -0.366279
v -1.722499 4.444687 0.171280
v -1.637351 4.451962 0.708835
v -1.390239 4.458525 1.193774
v -1.005354 4.463740 1.578627
v -0.520371 4.467086 1.825714
v 0.017237 4.468234 1.910857
v 0.554844 4.467086 1.825714
v 1.039827 4.463740 1.578627
v 1.424712 4.458525 1.193774
v 1.671824 4.451962 0.708835
v 1.756972 4.444687 0.171280
v 0.017237 2.415617 -5.206123
v 0.017237 4.444687 0.171280
v 1.650833 1.959643 -1.773768
v 1.406856 2.357940 -2.039557
v 1.026854 2.674030 -2.250488
v 0.548024 2.876973 -2.385914
v 0.017237 2.946902 -2.432579
v -0.513550 2.876972 -2.385914
v -0.992381 2.674030 -2.250488
v -1.372382 2.357940 -2.039556
v -1.616358 1.959643 -1.773767
v -1.700428 1.518127 -1.479138
v -1.616358 1.076611 -1.184509
v -1.372382 0.678314 -0.918720
v -0.992381 0.362226 -0.707789
v -0.513550 0.159284 -0.572363
v 0.017237 0.089354 -0.525698
v 0.548024 0.159284 -0.572363
v 1.026854 0.362226 -0.707789
v 1.406855 0.678314 -0.918720
v 1.650831 1.076611 -1.184509
v 1.734901 1.518128 -1.479139
v 1.943424 4.076858 -0.515295
v 1.655748 4.066617 -1.051462
v 1.207685 4.058559 -1.473539
v 0.643093 4.053419 -1.742611
v 0.017237 4.051659 -1.834933
v -0.608619 4.053420 -1.742611
v -1.173212 4.058559 -1.473538
v -1.621275 4.066617 -1.051462
v -1.908949 4.076858 -0.515294
v -2.008076 4.088292 0.083584
v -1.908949 4.099803 0.686272
v -1.621275 4.110238 1.232617
v -1.173212 4.118542 1.667700
v -0.608619 4.123893 1.947653
v 0.017237 4.125741 2.044217
v 0.643092 4.123893 1.947653
v 1.207685 4.118544 1.667700
v 1.655748 4.110238 1.232616
v 1.943422 4.099803 0.686273
v 2.042549 4.088291 0.083584
v 2.062070 3.642488 -0.612455
v 1.756676 3.649835 -1.177419
v 1.281013 3.655636 -1.622893
v 0.681644 3.659337 -1.907333
v 0.017237 3.660609 -2.005028
v -0.647170 3.659337 -1.907332
v -1.246539 3.655636 -1.622892
v -1.722201 3.649835 -1.177418
v -2.027596 3.642488 -0.612454
v -2.132828 3.634281 0.017764
v -2.027596 3.626038 0.651436
v -1.722201 3.618564 1.225578
v -1.246539 3.612617 1.682676
v -0.647170 3.608785 1.976766
v 0.017237 3.607470 2.078205
v 0.681643 3.608787 1.976765
v 1.281012 3.612617 1.682676
v 1.756675 3.618564 1.225577
v 2.062069 3.626038 0.651436
v 2.167301 3.634283 0.017764
v 2.153211 3.125436 -0.763413
v 1.834205 3.210859 -1.342741
v 1.337341 3.278329 -1.800314
v 0.711257 3.321483 -2.092964
v 0.017237 3.336318 -2.193584
v -0.676783 3.321483 -2.092964
v -1.302868 3.278329 -1.800313
v -1.799731 3.210859 -1.342740
v -2.118737 3.125436 -0.763413
v -2.228659 3.030275 -0.118046
v -2.118737 2.934679 0.530269
v -1.799731 2.848113 1.117374
v -1.302868 2.779209 1.584678
v -0.676783 2.734881 1.885303
v 0.017237 2.719593 1.988994
v 0.711256 2.734883 1.885303
v 1.337341 2.779209 1.584678
v 1.834204 2.848113 1.117374
v 2.153210 2.934679 0.530269
v 2.263132 3.030275 -0.118046
v 2.153211 2.634074 -0.973068
v 1.834205 2.843873 -1.514849
v 1.337341 3.009866 -1.943503
v 0.711257 3.116208 -2.218118
v 0.017237 3.152809 -2.312637
v -0.676783 3.116207 -2.218118
v -1.302868 3.009866 -1.943503
v -1.799731 2.843873 -1.514849
v -2.118737 2.634073 -0.973068
v -2.228659 2.400680 -0.370361
v -2.118737 2.166438 0.234539
v -1.799731 1.954424 0.782037
v -1.302868 1.785717 1.217704
v -0.676783 1.677196 1.497946
v 0.017237 1.639767 1.594604
v 0.711256 1.677196 1.497945
v 1.337341 1.785717 1.217704
v 1.834204 1.954424 0.782037
v 2.153210 2.166438 0.234539
v 2.263132 2.400680 -0.370361
v 1.268101 1.721024 -2.560447
v 1.089563 2.069057 -2.635851
v 0.801651 2.349435 -2.696598
v 0.431579 2.531697 -2.736086
v 0.017237 2.594950 -2.749791
v -0.397106 2.531697 -2.736086
v -0.767177 2.349437 -2.696598
v -1.055090 2.069056 -2.635850
v -1.233626 1.721024 -2.560446
v -1.287947 1.341010 -2.478112
v -1.215590 0.966083 -2.396878
v -1.025629 0.631537 -2.324395
v -0.737366 0.368187 -2.267337
v -0.378502 0.199998 -2.230898
v 0.017237 0.142201 -2.218375
v 0.412975 0.199999 -2.230898
v 0.771839 0.368187 -2.267337
v 1.060102 0.631536 -2.324396
v 1.250063 0.966082 -2.396878
v 1.322420 1.341010 -2.478113
vt 0.961168 0.117190
vt 0.939496 0.074658
vt 0.905742 0.040904
vt 0.863209 0.019232
vt 0.816062 0.011765
vt 0.768914 0.019232
vt 0.726381 0.040904
vt 0.692627 0.074658
vt 0.670956 0.117190
vt 0.663488 0.164338
vt 0.670956 0.211486
vt 0.692627 0.254019
vt 0.726381 0.287773
vt 0.768914 0.309444
vt 0.816062 0.316912
vt 0.863209 0.309444
vt 0.905742 0.287773
vt 0.939496 0.254019
vt 0.961168 0.211486
vt 0.968635 0.164338
vt 0.694003 0.316912
vt 0.706209 0.316912
vt 0.718415 0.316912
vt 0.730621 0.316912
vt 0.742826 0.316912
vt 0.755032 0.316912
vt 0.767238 0.316912
vt 0.779444 0.316912
vt 0.791650 0.316912
vt 0.803856 0.316912
vt 0.816062 0.316912
vt 0.828267 0.316912
vt 0.840473 0.316912
vt 0.852679 0.316912
vt 0.864885 0.316912
vt 0.877091 0.316912
vt 0.889297 0.316912
vt 0.901503 0.316912
vt 0.913709 0.316912
vt 0.925915 0.316912
vt 0.938120 0.316912
vt 0.694003 0.684006
vt 0.706209 0.684006
vt 0.718415 0.684006
vt 0.730621 0.684006
vt 0.742826 0.684006
vt 0.755032 0.684006
vt 0.767238 0.684006
vt 0.779444 0.684006
vt 0.791650 0.684006
vt 0.803856 0.684006
vt 0.816062 0.684006
vt 0.828267 0.684006
vt 0.840473 0.684006
vt 0.852679 0.684006
vt 0.864885 0.684006
vt 0.877091 0.684006
vt 0.889297 0.684006
vt 0.901503 0.684006
vt 0.913709 0.684006
vt 0.925915 0.684006
vt 0.938120 0.684006
vt 0.961168 0.788514
vt 0.939496 0.745981
vt 0.905742 0.712227
vt 0.863209 0.690556
vt 0.816062 0.683088
vt 0.768914 0.690556
vt 0.726381 0.712227
vt 0.692627 0.745981
vt 0.670956 0.788514
vt 0.663488 0.835662
vt 0.670956 0.882810
vt 0.692627 0.925342
vt 0.726381 0.959096
vt 0.768914 0.980768
vt 0.816062 0.988235
vt 0.863209 0.980768
vt 0.905742 0.959096
vt 0.939496 0.925342
vt 0.961168 0.882810
vt 0.968635 0.835662
vt 0.816062 0.158235
vt 0.816062 0.829559
vt 0.938120 0.389318
vt 0.694003 0.389318
vt 0.706209 0.389060
vt 0.718415 0.388855
vt 0.730621 0.388723
vt 0.742826 0.388678
vt 0.755032 0.388723
vt 0.767238 0.388855
vt 0.779444 0.389060
vt 0.791650 0.389318
vt 0.803856 0.389605
vt 0.816062 0.389891
vt 0.828267 0.390150
vt 0.840473 0.390355
vt 0.852679 0.390486
vt 0.864885 0.390532
vt 0.877091 0.390486
vt 0.889297 0.390355
vt 0.901503 0.390150
vt 0.913709 0.389891
vt 0.925915 0.389605
vt 0.938120 0.520475
vt 0.694003 0.520475
vt 0.706209 0.507236
vt 0.718415 0.495163
vt 0.730621 0.486534
vt 0.742826 0.483381
vt 0.755032 0.486534
vt 0.767238 0.495163
vt 0.779444 0.507236
vt 0.791650 0.520475
vt 0.803856 0.533077
vt 0.816062 0.543937
vt 0.828267 0.552522
vt 0.840473 0.558649
vt 0.852679 0.562303
vt 0.864885 0.563516
vt 0.877091 0.562303
vt 0.889297 0.558649
vt 0.901503 0.552522
vt 0.913709 0.543937
vt 0.925914 0.533077
vt 0.938120 0.488344
vt 0.694003 0.488344
vt 0.706209 0.477420
vt 0.718415 0.467689
vt 0.730621 0.460855
vt 0.742826 0.458381
vt 0.755032 0.460855
vt 0.767238 0.467689
vt 0.779444 0.477420
vt 0.791650 0.488344
vt 0.803856 0.499024
vt 0.816062 0.508477
vt 0.828267 0.516134
vt 0.840473 0.521710
vt 0.852679 0.525082
vt 0.864885 0.526209
vt 0.877091 0.525082
vt 0.889297 0.521710
vt 0.901503 0.516134
vt 0.913709 0.508477
vt 0.925914 0.499024
vt 0.938120 0.455300
vt 0.694003 0.455300
vt 0.706209 0.446735
vt 0.718415 0.439398
vt 0.730621 0.434402
vt 0.742826 0.432625
vt 0.755032 0.434402
vt 0.767238 0.439398
vt 0.779444 0.446735
vt 0.791650 0.455300
vt 0.803856 0.464031
vt 0.816062 0.472068
vt 0.828267 0.478799
vt 0.840473 0.483830
vt 0.852679 0.486927
vt 0.864885 0.487971
vt 0.877091 0.486927
vt 0.889297 0.483830
vt 0.901503 0.478799
vt 0.913709 0.472068
vt 0.925914 0.464031
vt 0.938120 0.422227
vt 0.694003 0.422227
vt 0.706209 0.416026
vt 0.718415 0.411088
vt 0.730621 0.407934
vt 0.742826 0.406854
vt 0.755032 0.407934
vt 0.767238 0.411088
vt 0.779444 0.416026
vt 0.791650 0.422227
vt 0.803856 0.429001
vt 0.816062 0.435615
vt 0.828267 0.441416
vt 0.840473 0.445898
vt 0.852679 0.448717
vt 0.864885 0.449677
vt 0.877091 0.448717
vt 0.889297 0.445898
vt 0.901503 0.441416
vt 0.913709 0.435615
vt 0.925914 0.429001
vt 0.938120 0.351440
vt 0.694003 0.351440
vt 0.706209 0.352037
vt 0.718415 0.352573
vt 0.730621 0.352950
vt 0.742826 0.353087
vt 0.755032 0.352950
vt 0.767238 0.352573
vt 0.779444 0.352037
vt 0.791650 0.351440
vt 0.803856 0.350864
vt 0.816062 0.350363
vt 0.828267 0.349966
vt 0.840473 0.349683
vt 0.852679 0.349514
vt 0.864885 0.349458
vt 0.877091 0.349514
vt 0.889297 0.349683
vt 0.901503 0.349966
vt 0.913709 0.350363
vt 0.925915 0.350864
vn 0.817545 0.205333 -0.538014
vn 0.692022 0.451674 -0.563113
vn 0.738831 0.372372 -0.561666
vn 0.866010 0.122980 -0.484667
vn 0.500034 0.646268 -0.576458
vn 0.537414 0.568474 -0.622916
vn 0.261679 0.770622 -0.581090
vn 0.282907 0.693304 -0.662792
vn -0.000000 0.813296 -0.581850
vn -0.000001 0.736212 -0.676751
vn -0.261675 0.770625 -0.581088
vn -0.282905 0.693306 -0.662791
vn -0.500034 0.646270 -0.576456
vn -0.537415 0.568474 -0.622915
vn -0.692025 0.451671 -0.563112
vn -0.738833 0.372369 -0.561665
vn -0.817545 0.205334 -0.538013
vn -0.866010 0.122982 -0.484667
vn -0.862074 -0.068571 -0.502122
vn -0.904017 -0.153129 -0.399130
vn -0.819542 -0.341737 -0.459964
vn -0.849344 -0.424291 -0.313993
vn -0.694644 -0.585444 -0.418002
vn -0.711535 -0.660973 -0.238396
vn -0.502086 -0.775489 -0.382788
vn -0.509352 -0.841572 -0.179769
vn -0.262793 -0.895362 -0.359536
vn -0.264936 -0.953611 -0.142951
vn 0.000001 -0.936214 -0.351431
vn 0.000001 -0.991457 -0.130432
vn 0.262793 -0.895362 -0.359536
vn 0.264936 -0.953611 -0.142951
vn 0.502084 -0.775490 -0.382788
vn 0.509351 -0.841573 -0.179769
vn 0.694643 -0.585444 -0.418003
vn 0.711535 -0.660973 -0.238397
vn 0.819542 -0.341737 -0.459964
vn 0.849344 -0.424290 -0.313993
vn 0.862074 -0.068574 -0.502122
vn 0.904017 -0.153131 -0.399130
vn 0.813642 0.558888 -0.160096
vn 0.917544 0.274107 -0.288060
vn 0.000003 0.216240 -0.976340
vn 0.605382 0.794369 -0.049909
vn 0.321551 0.946598 0.023598
vn 0.000000 0.998787 0.049236
vn -0.321544 0.946601 0.023599
vn -0.605383 0.794368 -0.049911
vn -0.813645 0.558882 -0.160099
vn -0.917544 0.274108 -0.288059
vn -0.910830 -0.015342 -0.412497
vn -0.811421 -0.271064 -0.517804
vn -0.648245 -0.472032 -0.597465
vn -0.447588 -0.612561 -0.651486
vn -0.227696 -0.694635 -0.682375
vn 0.000001 -0.721530 -0.692384
vn 0.227699 -0.694635 -0.682375
vn 0.447587 -0.612561 -0.651486
vn 0.648243 -0.472034 -0.597466
vn 0.811421 -0.271064 -0.517804
vn 0.910829 -0.015344 -0.412498
vn 0.000004 0.999908 -0.013542
vn 0.000007 0.999908 -0.013532
vn -0.000000 0.999908 -0.013537
vn 0.000003 0.999908 -0.013535
vn -0.000001 0.999908 -0.013538
vn -0.000000 0.999908 -0.013538
vn 0.000001 0.999908 -0.013538
vn -0.000003 0.999908 -0.013535
vn -0.000007 0.999908 -0.013532
vn -0.000004 0.999908 -0.013543
vn 0.000000 0.999908 -0.013543
vn -0.000000 0.999908 -0.013532
vn -0.000004 0.999908 -0.013537
vn -0.000004 0.999908 -0.013540
vn 0.000003 0.999908 -0.013536
vn 0.000000 0.999908 -0.013535
vn -0.000004 0.999908 -0.013536
vn 0.000004 0.999908 -0.013540
vn 0.000004 0.999908 -0.013537
vn 0.000000 0.999908 -0.013532
vn 0.000000 0.999908 -0.013543
vn 0.893637 -0.046290 -0.446397
vn 0.765127 0.180551 -0.618047
vn 0.794171 0.119117 -0.595906
vn 0.928857 -0.050587 -0.366968
vn 0.557323 0.390827 -0.732561
vn 0.585720 0.285100 -0.758716
vn 0.290368 0.550526 -0.782693
vn 0.318525 0.438971 -0.840147
vn -0.000001 0.607468 -0.794344
vn -0.000000 0.518258 -0.855224
vn -0.290367 0.550527 -0.782692
vn -0.318525 0.438971 -0.840147
vn -0.557323 0.390827 -0.732560
vn -0.585720 0.285100 -0.758716
vn -0.765128 0.180550 -0.618046
vn -0.794171 0.119117 -0.595906
vn -0.893637 -0.046289 -0.446398
vn -0.928857 -0.050587 -0.366969
vn -0.930822 -0.273289 -0.242660
vn -0.970655 -0.218927 -0.099495
vn -0.874044 -0.484539 -0.035631
vn -0.911563 -0.374232 0.170306
vn -0.732676 -0.664159 0.148587
vn -0.761607 -0.503815 0.407584
vn -0.525106 -0.799782 0.290881
vn -0.543232 -0.599245 0.588052
vn -0.273432 -0.883707 0.379864
vn -0.281749 -0.656964 0.699296
vn 0.000000 -0.912063 0.410050
vn 0.000000 -0.676206 0.736713
vn 0.273432 -0.883707 0.379864
vn 0.281750 -0.656964 0.699296
vn 0.525106 -0.799782 0.290881
vn 0.543232 -0.599244 0.588052
vn 0.732676 -0.664159 0.148587
vn 0.761607 -0.503815 0.407584
vn 0.874044 -0.484539 -0.035631
vn 0.911563 -0.374232 0.170305
vn 0.930822 -0.273290 -0.242660
vn 0.970655 -0.218927 -0.099495
vn 0.833785 0.473552 -0.283814
vn 0.692277 0.493102 -0.526880
vn 0.611980 0.641033 -0.463203
vn 0.725775 0.643648 -0.242834
vn 0.493668 0.496936 -0.713686
vn 0.446108 0.621812 -0.643690
vn 0.256539 0.493134 -0.831268
vn 0.236045 0.599628 -0.764676
vn -0.000000 0.490533 -0.871423
vn 0.000000 0.589896 -0.807479
vn -0.256539 0.493133 -0.831268
vn -0.236045 0.599628 -0.764675
vn -0.493668 0.496935 -0.713686
vn -0.446108 0.621813 -0.643690
vn -0.692277 0.493102 -0.526880
vn -0.611980 0.641034 -0.463203
vn -0.833785 0.473552 -0.283815
vn -0.725774 0.643648 -0.242835
vn -0.900763 0.434302 -0.002723
vn -0.782764 0.622304 0.004280
vn -0.879185 0.376987 0.291402
vn -0.773036 0.575646 0.266546
vn -0.763477 0.309608 0.566785
vn -0.683512 0.509508 0.522698
vn -0.562027 0.245479 0.789852
vn -0.511060 0.439096 0.738927
vn -0.297346 0.199405 0.933715
vn -0.272749 0.385381 0.881527
vn 0.000000 0.182661 0.983176
vn -0.000000 0.365411 0.930846
vn 0.297346 0.199404 0.933715
vn 0.272749 0.385381 0.881527
vn 0.562027 0.245480 0.789851
vn 0.511060 0.439097 0.738926
vn 0.763477 0.309608 0.566786
vn 0.683512 0.509508 0.522698
vn 0.879185 0.376987 0.291402
vn 0.773036 0.575646 0.266546
vn 0.900763 0.434302 -0.002722
vn 0.782764 0.622303 0.004281
vn 0.917273 0.273356 -0.289632
vn 0.756642 0.343814 -0.556135
vn 0.529343 0.399758 -0.748325
vn 0.269600 0.435797 -0.858718
vn -0.000000 0.448273 -0.893897
vn -0.269601 0.435797 -0.858718
vn -0.529343 0.399757 -0.748325
vn -0.756642 0.343813 -0.556135
vn -0.917273 0.273356 -0.289633
vn -0.980424 0.195659 0.022058
vn -0.934125 0.119399 0.336385
vn -0.788246 0.052809 0.613090
vn -0.566160 0.001965 0.824293
vn -0.294896 -0.029598 0.955071
vn 0.000000 -0.040264 0.999189
vn 0.294896 -0.029598 0.955071
vn 0.566160 0.001965 0.824293
vn 0.788246 0.052809 0.613091
vn 0.934125 0.119399 0.336385
vn 0.980424 0.195659 0.022059
vn 0.942562 0.181292 -0.280555
vn 0.783206 0.298412 -0.545471
vn 0.549266 0.403912 -0.731548
vn 0.278996 0.481390 -0.830918
vn -0.000000 0.510688 -0.859766
vn -0.278996 0.481391 -0.830918
vn -0.549266 0.403912 -0.731548
vn -0.783206 0.298412 -0.545471
vn -0.942561 0.181292 -0.280556
vn -0.997473 0.064814 0.029113
vn -0.940433 -0.040426 0.337568
vn -0.786219 -0.126435 0.604875
vn -0.560790 -0.188922 0.806116
vn -0.290882 -0.226465 0.929570
vn 0.000001 -0.238952 0.971032
vn 0.290883 -0.226465 0.929570
vn 0.560789 -0.188923 0.806116
vn 0.786219 -0.126436 0.604875
vn 0.940433 -0.040426 0.337567
vn 0.997473 0.064813 0.029113
s 1
g pCylinder1
usemtl initialShadingGroup
f 1/21/1 2/22/2 144/192/3 143/191/4
f 2/22/2 3/23/5 145/193/6 144/192/3
f 3/23/5 4/24/7 146/194/8 145/193/6
f 4/24/7 5/25/9 147/195/10 146/194/8
f 5/25/9 6/26/11 148/196/12 147/195/10
f 6/26/11 7/27/13 149/197/14 148/196/12
f 7/27/13 8/28/15 150/198/16 149/197/14
f 8/28/15 9/29/17 151/199/18 150/198/16
f 9/29/17 10/30/19 152/200/20 151/199/18
f 10/30/19 11/31/21 153/201/22 152/200/20
f 11/31/21 12/32/23 154/202/24 153/201/22
f 12/32/23 13/33/25 155/203/26 154/202/24
f 13/33/25 14/34/27 156/204/28 155/203/26
f 14/34/27 15/35/29 157/205/30 156/204/28
f 15/35/29 16/36/31 158/206/32 157/205/30
f 16/36/31 17/37/33 159/207/34 158/206/32
f 17/37/33 18/38/35 160/208/36 159/207/34
f 18/38/35 19/39/37 161/209/38 160/208/36
f 19/39/37 20/40/39 162/210/40 161/209/38
f 20/40/39 1/41/1 143/190/4 162/210/40
s 2
f 2/2/41 1/1/42 41/83/43
f 3/3/44 2/2/41 41/83/43
f 4/4/45 3/3/44 41/83/43
f 5/5/46 4/4/45 41/83/43
f 6/6/47 5/5/46 41/83/43
f 7/7/48 6/6/47 41/83/43
f 8/8/49 7/7/48 41/83/43
f 9/9/50 8/8/49 41/83/43
f 10/10/51 9/9/50 41/83/43
f 11/11/52 10/10/51 41/83/43
f 12/12/53 11/11/52 41/83/43
f 13/13/54 12/12/53 41/83/43
f 14/14/55 13/13/54 41/83/43
f 15/15/56 14/14/55 41/83/43
f 16/16/57 15/15/56 41/83/43
f 17/17/58 16/16/57 41/83/43
f 18/18/59 17/17/58 41/83/43
f 19/19/60 18/18/59 41/83/43
f 20/20/61 19/19/60 41/83/43
f 1/1/42 20/20/61 41/83/43
s 3
f 21/81/62 22/80/63 42/84/64
f 22/80/63 23/79/65 42/84/64
f 23/79/65 24/78/66 42/84/64
f 24/78/66 25/77/67 42/84/64
f 25/77/67 26/76/68 42/84/64
f 26/76/68 27/75/69 42/84/64
f 27/75/69 28/74/70 42/84/64
f 28/74/70 29/73/71 42/84/64
f 29/73/71 30/72/72 42/84/64
f 30/72/72 31/71/73 42/84/64
f 31/71/73 32/70/74 42/84/64
f 32/70/74 33/69/75 42/84/64
f 33/69/75 34/68/76 42/84/64
f 34/68/76 35/67/77 42/84/64
f 35/67/77 36/66/78 42/84/64
f 36/66/78 37/65/79 42/84/64
f 37/65/79 38/64/80 42/84/64
f 38/64/80 39/63/81 42/84/64
f 39/63/81 40/82/82 42/84/64
f 40/82/82 21/81/62 42/84/64
s 1
f 43/86/83 44/87/84 124/171/85 123/170/86
f 44/87/84 45/88/87 125/172/88 124/171/85
f 45/88/87 46/89/89 126/173/90 125/172/88
f 46/89/89 47/90/91 127/174/92 126/173/90
f 47/90/91 48/91/93 128/175/94 127/174/92
f 48/91/93 49/92/95 129/176/96 128/175/94
f 49/92/95 50/93/97 130/177/98 129/176/96
f 50/93/97 51/94/99 131/178/100 130/177/98
f 51/94/99 52/95/101 132/179/102 131/178/100
f 52/95/101 53/96/103 133/180/104 132/179/102
f 53/96/103 54/97/105 134/181/106 133/180/104
f 54/97/105 55/98/107 135/182/108 134/181/106
f 55/98/107 56/99/109 136/183/110 135/182/108
f 56/99/109 57/100/111 137/184/112 136/183/110
f 57/100/111 58/101/113 138/185/114 137/184/112
f 58/101/113 59/102/115 139/186/116 138/185/114
f 59/102/115 60/103/117 140/187/118 139/186/116
f 60/103/117 61/104/119 141/188/120 140/187/118
f 61/104/119 62/105/121 142/189/122 141/188/120
f 62/105/121 43/85/83 123/169/86 142/189/122
f 63/107/123 64/108/124 22/43/125 21/42/126
f 64/108/124 65/109/127 23/44/128 22/43/125
f 65/109/127 66/110/129 24/45/130 23/44/128
f 66/110/129 67/111/131 25/46/132 24/45/130
f 67/111/131 68/112/133 26/47/134 25/46/132
f 68/112/133 69/113/135 27/48/136 26/47/134
f 69/113/135 70/114/137 28/49/138 27/48/136
f 70/114/137 71/115/139 29/50/140 28/49/138
f 71/115/139 72/116/141 30/51/142 29/50/140
f 72/116/141 73/117/143 31/52/144 30/51/142
f 73/117/143 74/118/145 32/53/146 31/52/144
f 74/118/145 75/119/147 33/54/148 32/53/146
f 75/119/147 76/120/149 34/55/150 33/54/148
f 76/120/149 77/121/151 35/56/152 34/55/150
f 77/121/151 78/122/153 36/57/154 35/56/152
f 78/122/153 79/123/155 37/58/156 36/57/154
f 79/123/155 80/124/157 38/59/158 37/58/156
f 80/124/157 81/125/159 39/60/160 38/59/158
f 81/125/159 82/126/161 40/61/162 39/60/160
f 82/126/161 63/106/123 21/62/126 40/61/162
f 83/128/163 84/129/164 64/108/124 63/107/123
f 84/129/164 85/130/165 65/109/127 64/108/124
f 85/130/165 86/131/166 66/110/129 65/109/127
f 86/131/166 87/132/167 67/111/131 66/110/129
f 87/132/167 88/133/168 68/112/133 67/111/131
f 88/133/168 89/134/169 69/113/135 68/112/133
f 89/134/169 90/135/170 70/114/137 69/113/135
f 90/135/170 91/136/171 71/115/139 70/114/137
f 91/136/171 92/137/172 72/116/141 71/115/139
f 92/137/172 93/138/173 73/117/143 72/116/141
f 93/138/173 94/139/174 74/118/145 73/117/143
f 94/139/174 95/140/175 75/119/147 74/118/145
f 95/140/175 96/141/176 76/120/149 75/119/147
f 96/141/176 97/142/177 77/121/151 76/120/149
f 97/142/177 98/143/178 78/122/153 77/121/151
f 98/143/178 99/144/179 79/123/155 78/122/153
f 99/144/179 100/145/180 80/124/157 79/123/155
f 100/145/180 101/146/181 81/125/159 80/124/157
f 101/146/181 102/147/182 82/126/161 81/125/159
f 102/147/182 83/127/163 63/106/123 82/126/161
f 103/149/183 104/150/184 84/129/164 83/128/163
f 104/150/184 105/151/185 85/130/165 84/129/164
f 105/151/185 106/152/186 86/131/166 85/130/165
f 106/152/186 107/153/187 87/132/167 86/131/166
f 107/153/187 108/154/188 88/133/168 87/132/167
f 108/154/188 109/155/189 89/134/169 88/133/168
f 109/155/189 110/156/190 90/135/170 89/134/169
f 110/156/190 111/157/191 91/136/171 90/135/170
f 111/157/191 112/158/192 92/137/172 91/136/171
f 112/158/192 113/159/193 93/138/173 92/137/172
f 113/159/193 114/160/194 94/139/174 93/138/173
f 114/160/194 115/161/195 95/140/175 94/139/174
f 115/161/195 116/162/196 96/141/176 95/140/175
f 116/162/196 117/163/197 97/142/177 96/141/176
f 117/163/197 118/164/198 98/143/178 97/142/177
f 118/164/198 119/165/199 99/144/179 98/143/178
f 119/165/199 120/166/200 100/145/180 99/144/179
f 120/166/200 121/167/201 101/146/181 100/145/180
f 121/167/201 122/168/202 102/147/182 101/146/181
f 122/168/202 103/148/183 83/127/163 102/147/182
f 123/170/86 124/171/85 104/150/184 103/149/183
f 124/171/85 125/172/88 105/151/185 104/150/184
f 125/172/88 126/173/90 106/152/186 105/151/185
f 126/173/90 127/174/92 107/153/187 106/152/186
f 127/174/92 128/175/94 108/154/188 107/153/187
f 128/175/94 129/176/96 109/155/189 108/154/188
f 129/176/96 130/177/98 110/156/190 109/155/189
f 130/177/98 131/178/100 111/157/191 110/156/190
f 131/178/100 132/179/102 112/158/192 111/157/191
f 132/179/102 133/180/104 113/159/193 112/158/192
f 133/180/104 134/181/106 114/160/194 113/159/193
f 134/181/106 135/182/108 115/161/195 114/160/194
f 135/182/108 136/183/110 116/162/196 115/161/195
f 136/183/110 137/184/112 117/163/197 116/162/196
f 137/184/112 138/185/114 118/164/198 117/163/197
f 138/185/114 139/186/116 119/165/199 118/164/198
f 139/186/116 140/187/118 120/166/200 119/165/199
f 140/187/118 141/188/120 121/167/201 120/166/200
f 141/188/120 142/189/122 122/168/202 121/167/201
f 142/189/122 123/169/86 103/148/183 122/168/202
f 143/191/4 144/192/3 44/87/84 43/86/83
f 144/192/3 145/193/6 45/88/87 44/87/84
f 145/193/6 146/194/8 46/89/89 45/88/87
f 146/194/8 147/195/10 47/90/91 46/89/89
f 147/195/10 148/196/12 48/91/93 47/90/91
f 148/196/12 149/197/14 49/92/95 48/91/93
f 149/197/14 150/198/16 50/93/97 49/92/95
f 150/198/16 151/199/18 51/94/99 50/93/97
f 151/199/18 152/200/20 52/95/101 51/94/99
f 152/200/20 153/201/22 53/96/103 52/95/101
f 153/201/22 154/202/24 54/97/105 53/96/103
f 154/202/24 155/203/26 55/98/107 54/97/105
f 155/203/26 156/204/28 56/99/109 55/98/107
f 156/204/28 157/205/30 57/100/111 56/99/109
f 157/205/30 158/206/32 58/101/113 57/100/111
f 158/206/32 159/207/34 59/102/115 58/101/113
f 159/207/34 160/208/36 60/103/117 59/102/115
f 160/208/36 161/209/38 61/104/119 60/103/117
f 161/209/38 162/210/40 62/105/121 61/104/119
f 162/210/40 143/190/4 43/85/83 62/105/121
