# This file uses centimeters as units for non-parametric coordinates.

mtllib enemy_head.mtl
g default
v 0.981217 4.348958 -0.227701
v 0.684332 4.348958 -0.599984
v 0.255321 4.348958 -0.806585
v -0.220846 4.348958 -0.806585
v -0.649858 4.348958 -0.599984
v -0.946743 4.348958 -0.227701
v -1.052701 4.348958 0.236527
v -0.946744 4.348958 0.700756
v -0.649859 4.348958 1.073038
v -0.220847 4.348958 1.279640
v 0.255320 4.348958 1.279640
v 0.684332 4.348958 1.073039
v 0.981217 4.348958 0.700756
v 1.087175 4.348958 0.236527
v 1.896861 4.349545 -0.668651
v 1.317977 4.349545 -1.394548
v 0.481466 4.349545 -1.797391
v -0.446991 4.349545 -1.797391
v -1.283502 4.349545 -1.394549
v -1.862387 4.349545 -0.668652
v -2.068988 4.349545 0.236527
v -1.862387 4.349545 1.141706
v -1.283503 4.349545 1.867603
v -0.446992 4.349545 2.270446
v 0.481465 4.349545 2.270446
v 1.317976 4.349545 1.867604
v 1.896861 4.349545 1.141707
v 2.103462 4.349545 0.236527
v 2.718251 4.309789 -1.064212
v 1.886397 3.867912 -2.107325
v 0.684333 4.309789 -2.686208
v -0.649858 3.867912 -2.686208
v -1.851922 4.309789 -2.107325
v -2.683776 3.867912 -1.064213
v -2.980662 4.309789 0.236527
v -2.683777 3.867912 1.537267
v -1.851923 4.309789 2.580379
v -0.649859 3.867912 3.159263
v 0.684332 4.309789 3.159263
v 1.886396 3.867912 2.580380
v 2.718251 4.309789 1.537267
v 3.015136 3.867912 0.236527
v 2.715411 4.548747 -1.062844
v 1.884432 4.548747 -2.104860
v 0.683631 4.548747 -2.683136
v -0.649156 4.548747 -2.683136
v -1.849957 4.548747 -2.104861
v -2.680937 4.548747 -1.062845
v -2.977511 4.548747 0.236527
v -2.680938 4.548747 1.535899
v -1.849958 4.548747 2.577915
v -0.649158 4.548747 3.156190
v 0.683631 4.548747 3.156191
v 1.884431 4.548747 2.577915
v 2.715411 4.548747 1.535900
v 3.011985 4.548747 0.236527
v 2.719412 5.140202 -1.064771
v 1.887200 5.140202 -2.108331
v 0.684619 5.140202 -2.687464
v -0.650145 5.140202 -2.687464
v -1.852726 5.140202 -2.108332
v -2.684937 5.140202 -1.064772
v -2.981951 5.140202 0.236527
v -2.684938 5.140202 1.537826
v -1.852727 5.140202 2.581387
v -0.650146 5.140202 3.160519
v 0.684619 5.140202 3.160519
v 1.887200 5.140202 2.581387
v 2.719412 5.140202 1.537826
v 3.016425 5.140202 0.236527
v 2.712305 5.741813 -1.061348
v 1.882282 5.741813 -2.102165
v 0.682864 5.741813 -2.679774
v -0.648389 5.741813 -2.679774
v -1.847808 5.741813 -2.102165
v -2.677831 5.741813 -1.061349
v -2.974063 5.741813 0.236527
v -2.677831 5.741813 1.534403
v -1.847808 5.741813 2.575220
v -0.648390 5.741813 3.152829
v 0.682863 5.741813 3.152829
v 1.882282 5.741813 2.575220
v 2.712305 5.741813 1.534404
v 3.008537 5.741813 0.236527
v 2.720144 6.389366 -1.065123
v 1.887707 6.389366 -2.108966
v 0.684800 6.389366 -2.688256
v -0.650325 6.389366 -2.688256
v -1.853232 6.389366 -2.108967
v -2.685669 6.389366 -1.065124
v -2.982763 6.389366 0.236527
v -2.685670 6.389366 1.538178
v -1.853233 6.389366 2.582021
v -0.650326 6.389366 3.161311
v 0.684799 6.389366 3.161311
v 1.887706 6.389366 2.582022
v 2.720144 6.389366 1.538179
v 3.017237 6.389366 0.236527
v 2.652376 7.056929 -1.032488
v 1.840810 7.056929 -2.050160
v 0.668063 7.056929 -2.614925
v -0.633588 7.056929 -2.614926
v -1.806335 7.056929 -2.050161
v -2.617902 7.056929 -1.032489
v -2.907547 7.056929 0.236527
v -2.617902 7.056929 1.505543
v -1.806336 7.056929 2.523215
v -0.633589 7.056929 3.087980
v 0.668062 7.056929 3.087981
v 1.840810 7.056929 2.523216
v 2.652376 7.056929 1.505544
v 2.942021 7.056929 0.236527
v 2.452472 7.691018 -0.936219
v 1.702472 7.691018 -1.876689
v 0.618691 7.691018 -2.398611
v -0.584216 7.691018 -2.398612
v -1.667997 7.691018 -1.876690
v -2.417997 7.691018 -0.936220
v -2.685669 7.691018 0.236527
v -2.417998 7.691018 1.409274
v -1.667998 7.691018 2.349745
v -0.584217 7.691018 2.871666
v 0.618690 7.691018 2.871666
v 1.702471 7.691018 2.349745
v 2.452471 7.691018 1.409275
v 2.720144 7.691018 0.236527
v 2.130454 8.259836 -0.781144
v 1.479629 8.259836 -1.597253
v 0.539159 8.259836 -2.050160
v -0.504684 8.259836 -2.050160
v -1.445154 8.259836 -1.597254
v -2.095980 8.259836 -0.781145
v -2.328257 8.259836 0.236527
v -2.095981 8.259836 1.254199
v -1.445155 8.259836 2.070309
v -0.504685 8.259836 2.523215
v 0.539158 8.259836 2.523216
v 1.479629 8.259836 2.070309
v 2.130454 8.259836 1.254199
v 2.362731 8.259836 0.236527
v 1.702472 8.734861 -0.575038
v 1.183456 8.734861 -1.225864
v 0.433456 8.734861 -1.587045
v -0.398981 8.734861 -1.587045
v -1.148981 8.734861 -1.225865
v -1.667998 8.734861 -0.575039
v -1.853232 8.734861 0.236527
v -1.667998 8.734861 1.048093
v -1.148982 8.734861 1.698919
v -0.398982 8.734861 2.060100
v 0.433455 8.734861 2.060100
v 1.183456 8.734861 1.698920
v 1.702472 8.734861 1.048094
v 1.887706 8.734861 0.236527
v 1.189984 9.092273 -0.328237
v 0.828803 9.092273 -0.781144
v 0.306882 9.092273 -1.032488
v -0.272407 9.092273 -1.032489
v -0.794329 9.092273 -0.781144
v -1.155510 9.092273 -0.328238
v -1.284414 9.092273 0.236527
v -1.155510 9.092273 0.801292
v -0.794329 9.092273 1.254199
v -0.272408 9.092273 1.505543
v 0.306881 9.092273 1.505544
v 0.828803 9.092273 1.254199
v 1.189984 9.092273 0.801293
v 1.318888 9.092273 0.236527
v 0.618690 9.314150 -0.053117
v 0.433456 9.314150 -0.285394
v 0.165784 9.314150 -0.414298
v -0.131310 9.314150 -0.414298
v -0.398982 9.314150 -0.285394
v -0.584216 9.314150 -0.053117
v -0.650326 9.314150 0.236527
v -0.584216 9.314150 0.526172
v -0.398982 9.314150 0.758449
v -0.131310 9.314150 0.887353
v 0.165784 9.314150 0.887353
v 0.433455 9.314150 0.758449
v 0.618690 9.314150 0.526172
v 0.684800 9.314150 0.236527
v 0.017237 4.349163 0.236527
v 0.017237 9.389366 0.236527
vt 0.052280 0.061510
vt 0.095032 0.061510
vt 0.137784 0.061510
vt 0.180537 0.061510
vt 0.223289 0.061510
vt 0.266042 0.061510
vt 0.308794 0.061510
vt 0.351547 0.061510
vt 0.394299 0.061510
vt 0.437052 0.061510
vt 0.479804 0.061510
vt 0.522557 0.061510
vt 0.565309 0.061510
vt 0.608062 0.061510
vt 0.650814 0.061510
vt 0.052280 0.104263
vt 0.095032 0.104263
vt 0.137784 0.104263
vt 0.180537 0.104263
vt 0.223289 0.104263
vt 0.266042 0.104263
vt 0.308794 0.104263
vt 0.351547 0.104263
vt 0.394299 0.104263
vt 0.437052 0.104263
vt 0.479804 0.104263
vt 0.522557 0.104263
vt 0.565309 0.104263
vt 0.608062 0.104263
vt 0.650814 0.104263
vt 0.052280 0.147015
vt 0.095032 0.147015
vt 0.137784 0.147015
vt 0.180537 0.147015
vt 0.223289 0.147015
vt 0.266042 0.147015
vt 0.308794 0.147015
vt 0.351547 0.147015
vt 0.394299 0.147015
vt 0.437052 0.147015
vt 0.479804 0.147015
vt 0.522557 0.147015
vt 0.565309 0.147015
vt 0.608062 0.147015
vt 0.650814 0.147015
vt 0.052280 0.189768
vt 0.095032 0.189768
vt 0.137784 0.189768
vt 0.180537 0.189768
vt 0.223289 0.189768
vt 0.266042 0.189768
vt 0.308794 0.189768
vt 0.351547 0.189768
vt 0.394299 0.189768
vt 0.437052 0.189768
vt 0.479804 0.189768
vt 0.522557 0.189768
vt 0.565309 0.189768
vt 0.608062 0.189768
vt 0.650814 0.189768
vt 0.052280 0.232520
vt 0.095032 0.232520
vt 0.137784 0.232520
vt 0.180537 0.232520
vt 0.223289 0.232520
vt 0.266042 0.232520
vt 0.308794 0.232520
vt 0.351547 0.232520
vt 0.394299 0.232520
vt 0.437052 0.232520
vt 0.479804 0.232520
vt 0.522557 0.232520
vt 0.565309 0.232520
vt 0.608062 0.232520
vt 0.650814 0.232520
vt 0.052280 0.275273
vt 0.095032 0.275273
vt 0.137784 0.275273
vt 0.180537 0.275273
vt 0.223289 0.275273
vt 0.266042 0.275273
vt 0.308794 0.275273
vt 0.351547 0.275273
vt 0.394299 0.275273
vt 0.437052 0.275273
vt 0.479804 0.275273
vt 0.522557 0.275273
vt 0.565309 0.275273
vt 0.608062 0.275273
vt 0.650814 0.275273
vt 0.052280 0.318025
vt 0.095032 0.318025
vt 0.137784 0.318025
vt 0.180537 0.318025
vt 0.223289 0.318025
vt 0.266042 0.318025
vt 0.308794 0.318025
vt 0.351547 0.318025
vt 0.394299 0.318025
vt 0.437052 0.318025
vt 0.479804 0.318025
vt 0.522557 0.318025
vt 0.565309 0.318025
vt 0.608062 0.318025
vt 0.650814 0.318025
vt 0.052280 0.360778
vt 0.095032 0.360778
vt 0.137784 0.360778
vt 0.180537 0.360778
vt 0.223289 0.360778
vt 0.266042 0.360778
vt 0.308794 0.360778
vt 0.351547 0.360778
vt 0.394299 0.360778
vt 0.437052 0.360778
vt 0.479804 0.360778
vt 0.522557 0.360778
vt 0.565309 0.360778
vt 0.608062 0.360778
vt 0.650814 0.360778
vt 0.052280 0.403530
vt 0.095032 0.403530
vt 0.137784 0.403530
vt 0.180537 0.403530
vt 0.223289 0.403530
vt 0.266042 0.403530
vt 0.308794 0.403530
vt 0.351547 0.403530
vt 0.394299 0.403530
vt 0.437052 0.403530
vt 0.479804 0.403530
vt 0.522557 0.403530
vt 0.565309 0.403530
vt 0.608062 0.403530
vt 0.650814 0.403530
vt 0.052280 0.446283
vt 0.095032 0.446283
vt 0.137784 0.446283
vt 0.180537 0.446283
vt 0.223289 0.446283
vt 0.266042 0.446283
vt 0.308794 0.446283
vt 0.351547 0.446283
vt 0.394299 0.446283
vt 0.437052 0.446283
vt 0.479804 0.446283
vt 0.522557 0.446283
vt 0.565309 0.446283
vt 0.608062 0.446283
vt 0.650814 0.446283
vt 0.052280 0.489035
vt 0.095032 0.489035
vt 0.137784 0.489035
vt 0.180537 0.489035
vt 0.223289 0.489035
vt 0.266042 0.489035
vt 0.308794 0.489035
vt 0.351547 0.489035
vt 0.394299 0.489035
vt 0.437052 0.489035
vt 0.479804 0.489035
vt 0.522557 0.489035
vt 0.565309 0.489035
vt 0.608062 0.489035
vt 0.650814 0.489035
vt 0.052280 0.531788
vt 0.095032 0.531788
vt 0.137784 0.531788
vt 0.180537 0.531788
vt 0.223289 0.531788
vt 0.266042 0.531788
vt 0.308794 0.531788
vt 0.351547 0.531788
vt 0.394299 0.531788
vt 0.437052 0.531788
vt 0.479804 0.531788
vt 0.522557 0.531788
vt 0.565309 0.531788
vt 0.608062 0.531788
vt 0.650814 0.531788
vt 0.052280 0.574540
vt 0.095032 0.574540
vt 0.137784 0.574540
vt 0.180537 0.574540
vt 0.223289 0.574540
vt 0.266042 0.574540
vt 0.308794 0.574540
vt 0.351547 0.574540
vt 0.394299 0.574540
vt 0.437052 0.574540
vt 0.479804 0.574540
vt 0.522557 0.574540
vt 0.565309 0.574540
vt 0.608062 0.574540
vt 0.650814 0.574540
vt 0.073656 0.018758
vt 0.116408 0.018758
vt 0.159161 0.018758
vt 0.201913 0.018758
vt 0.244666 0.018758
vt 0.287418 0.018758
vt 0.330171 0.018758
vt 0.372923 0.018758
vt 0.415675 0.018758
vt 0.458428 0.018758
vt 0.501180 0.018758
vt 0.543933 0.018758
vt 0.586685 0.018758
vt 0.629438 0.018758
vt 0.073656 0.617292
vt 0.116408 0.617292
vt 0.159161 0.617292
vt 0.201913 0.617292
vt 0.244666 0.617292
vt 0.287418 0.617292
vt 0.330171 0.617292
vt 0.372923 0.617292
vt 0.415675 0.617292
vt 0.458428 0.617292
vt 0.501180 0.617292
vt 0.543933 0.617292
vt 0.586685 0.617292
vt 0.629438 0.617292
vn 0.000374 -1.000000 -0.000180
vn 0.000259 -1.000000 -0.000324
vn -0.131381 -0.977547 0.164746
vn -0.141855 -0.987527 0.068314
vn 0.000092 -1.000000 -0.000405
vn -0.035035 -0.987527 0.153499
vn -0.000092 -1.000000 -0.000405
vn 0.046889 -0.977547 0.205435
vn -0.000259 -1.000000 -0.000325
vn 0.098166 -0.987527 0.123097
vn -0.000374 -1.000000 -0.000180
vn 0.189851 -0.977547 0.091427
vn -0.000415 -1.000000 0.000000
vn 0.157447 -0.987527 0.000000
vn -0.000374 -1.000000 0.000180
vn 0.189851 -0.977547 -0.091427
vn -0.000259 -1.000000 0.000324
vn 0.098166 -0.987528 -0.123097
vn -0.000092 -1.000000 0.000405
vn 0.046889 -0.977547 -0.205435
vn 0.000092 -1.000000 0.000405
vn -0.035035 -0.987528 -0.153499
vn 0.000259 -1.000000 0.000324
vn -0.131381 -0.977547 -0.164746
vn 0.000374 -1.000000 0.000180
vn -0.141855 -0.987527 -0.068314
vn 0.000415 -1.000000 -0.000000
vn -0.210718 -0.977547 -0.000000
vn 0.165776 -0.964005 -0.207877
vn 0.451171 -0.865585 -0.217273
vn 0.111430 -0.865585 -0.488207
vn -0.059165 -0.964005 -0.259219
vn -0.312220 -0.865585 -0.391512
vn -0.239554 -0.964005 -0.115363
vn -0.500762 -0.865585 -0.000000
vn -0.239554 -0.964005 0.115363
vn -0.312220 -0.865585 0.391512
vn -0.059165 -0.964005 0.259218
vn 0.111430 -0.865585 0.488207
vn 0.165776 -0.964005 0.207877
vn 0.451172 -0.865585 0.217273
vn 0.265885 -0.964005 -0.000000
vn 0.623490 -0.001228 -0.781831
vn 0.900968 -0.001224 -0.433883
vn 0.222521 -0.001223 -0.974927
vn -0.222521 -0.001228 -0.974927
vn -0.623489 -0.001223 -0.781831
vn -0.900968 -0.001228 -0.433884
vn -0.999999 -0.001224 -0.000000
vn -0.900968 -0.001228 0.433883
vn -0.623490 -0.001223 0.781831
vn -0.222521 -0.001227 0.974927
vn 0.222521 -0.001223 0.974927
vn 0.623489 -0.001227 0.781831
vn 0.900968 -0.001224 0.433883
vn 0.999999 -0.001228 0.000000
vn 0.623487 0.002883 -0.781828
vn 0.900965 0.002883 -0.433882
vn 0.222520 0.002883 -0.974924
vn -0.222520 0.002883 -0.974924
vn -0.623487 0.002883 -0.781828
vn -0.900965 0.002883 -0.433882
vn -0.999996 0.002883 -0.000000
vn -0.900965 0.002883 0.433882
vn -0.623487 0.002883 0.781828
vn -0.222520 0.002883 0.974924
vn 0.222520 0.002883 0.974924
vn 0.623487 0.002883 0.781828
vn 0.900965 0.002883 0.433882
vn 0.999996 0.002883 0.000000
vn 0.623490 -0.000651 -0.781831
vn 0.900969 -0.000651 -0.433884
vn 0.222521 -0.000651 -0.974928
vn -0.222521 -0.000651 -0.974928
vn -0.623490 -0.000651 -0.781831
vn -0.900969 -0.000651 -0.433884
vn -1.000000 -0.000651 -0.000000
vn -0.900969 -0.000651 0.433884
vn -0.623490 -0.000651 0.781831
vn -0.222521 -0.000651 0.974928
vn 0.222521 -0.000651 0.974928
vn 0.623490 -0.000651 0.781831
vn 0.900969 -0.000651 0.433884
vn 1.000000 -0.000651 0.000000
vn 0.622719 0.049721 -0.780864
vn 0.899855 0.049721 -0.433347
vn 0.222246 0.049721 -0.973722
vn -0.222245 0.049721 -0.973722
vn -0.622719 0.049721 -0.780865
vn -0.899854 0.049721 -0.433347
vn -0.998763 0.049721 -0.000000
vn -0.899855 0.049721 0.433347
vn -0.622719 0.049721 0.780864
vn -0.222246 0.049721 0.973722
vn 0.222245 0.049721 0.973722
vn 0.622719 0.049721 0.780865
vn 0.899854 0.049721 0.433347
vn 0.998763 0.049721 0.000000
vn 0.608744 0.216199 -0.763340
vn 0.879660 0.216199 -0.423622
vn 0.217258 0.216199 -0.951870
vn -0.217258 0.216199 -0.951870
vn -0.608744 0.216199 -0.763341
vn -0.879660 0.216199 -0.423622
vn -0.976349 0.216199 -0.000000
vn -0.879660 0.216199 0.423622
vn -0.608744 0.216199 0.763341
vn -0.217258 0.216199 0.951870
vn 0.217258 0.216199 0.951870
vn 0.608744 0.216199 0.763341
vn 0.879660 0.216199 0.423622
vn 0.976349 0.216199 0.000000
vn 0.565231 0.422077 -0.708777
vn 0.816782 0.422077 -0.393342
vn 0.201729 0.422077 -0.883831
vn -0.201728 0.422077 -0.883831
vn -0.565231 0.422077 -0.708777
vn -0.816782 0.422077 -0.393342
vn -0.906560 0.422077 -0.000000
vn -0.816782 0.422077 0.393341
vn -0.565231 0.422077 0.708777
vn -0.201729 0.422077 0.883831
vn 0.201728 0.422077 0.883831
vn 0.565231 0.422077 0.708777
vn 0.816782 0.422077 0.393342
vn 0.906560 0.422077 0.000000
vn 0.495145 0.607722 -0.620891
vn 0.715504 0.607722 -0.344569
vn 0.176715 0.607722 -0.774239
vn -0.176715 0.607722 -0.774239
vn -0.495144 0.607722 -0.620892
vn -0.715504 0.607722 -0.344569
vn -0.794150 0.607722 -0.000000
vn -0.715505 0.607722 0.344569
vn -0.495144 0.607722 0.620891
vn -0.176715 0.607722 0.774239
vn 0.176715 0.607722 0.774239
vn 0.495144 0.607722 0.620891
vn 0.715504 0.607722 0.344569
vn 0.794150 0.607722 0.000000
vn 0.402263 0.764031 -0.504422
vn 0.581287 0.764031 -0.279933
vn 0.143566 0.764031 -0.629004
vn -0.143566 0.764031 -0.629004
vn -0.402263 0.764031 -0.504422
vn -0.581287 0.764031 -0.279933
vn -0.645180 0.764031 -0.000000
vn -0.581287 0.764031 0.279933
vn -0.402263 0.764031 0.504422
vn -0.143566 0.764031 0.629004
vn 0.143566 0.764031 0.629004
vn 0.402263 0.764031 0.504422
vn 0.581287 0.764031 0.279933
vn 0.645180 0.764031 0.000000
vn 0.292570 0.883068 -0.366871
vn 0.422776 0.883068 -0.203598
vn 0.104417 0.883068 -0.457481
vn -0.104417 0.883068 -0.457481
vn -0.292570 0.883068 -0.366871
vn -0.422776 0.883068 -0.203598
vn -0.469246 0.883068 -0.000000
vn -0.422776 0.883068 0.203598
vn -0.292570 0.883068 0.366871
vn -0.104417 0.883068 0.457481
vn 0.104417 0.883068 0.457480
vn 0.292570 0.883068 0.366871
vn 0.422776 0.883068 0.203598
vn 0.469245 0.883068 -0.000000
vn 0.178882 0.957959 -0.224311
vn 0.258492 0.957959 -0.124483
vn 0.063842 0.957959 -0.279711
vn -0.063842 0.957959 -0.279711
vn -0.178882 0.957959 -0.224311
vn -0.258492 0.957959 -0.124483
vn -0.286904 0.957959 -0.000000
vn -0.258492 0.957959 0.124483
vn -0.178882 0.957959 0.224311
vn -0.063842 0.957959 0.279711
vn 0.063842 0.957959 0.279711
vn 0.178882 0.957959 0.224311
vn 0.258492 0.957959 0.124483
vn 0.286904 0.957959 -0.000000
vn 0.000000 -1.000000 -0.000000
vn -0.000000 1.000000 -0.000000
s 1
g pSphere4
usemtl initialShadingGroup
f 1/1/1 2/2/2 16/17/3 15/16/4
f 2/2/2 3/3/5 17/18/6 16/17/3
f 3/3/5 4/4/7 18/19/8 17/18/6
f 4/4/7 5/5/9 19/20/10 18/19/8
f 5/5/9 6/6/11 20/21/12 19/20/10
f 6/6/11 7/7/13 21/22/14 20/21/12
f 7/7/13 8/8/15 22/23/16 21/22/14
f 8/8/15 9/9/17 23/24/18 22/23/16
f 9/9/17 10/10/19 24/25/20 23/24/18
f 10/10/19 11/11/21 25/26/22 24/25/20
f 11/11/21 12/12/23 26/27/24 25/26/22
f 12/12/23 13/13/25 27/28/26 26/27/24
f 13/13/25 14/14/27 28/29/28 27/28/26
f 14/14/27 1/15/1 15/30/4 28/29/28
f 15/16/4 16/17/3 30/32/29 29/31/30
f 16/17/3 17/18/6 31/33/31 30/32/29
f 17/18/6 18/19/8 32/34/32 31/33/31
f 18/19/8 19/20/10 33/35/33 32/34/32
f 19/20/10 20/21/12 34/36/34 33/35/33
f 20/21/12 21/22/14 35/37/35 34/36/34
f 21/22/14 22/23/16 36/38/36 35/37/35
f 22/23/16 23/24/18 37/39/37 36/38/36
f 23/24/18 24/25/20 38/40/38 37/39/37
f 24/25/20 25/26/22 39/41/39 38/40/38
f 25/26/22 26/27/24 40/42/40 39/41/39
f 26/27/24 27/28/26 41/43/41 40/42/40
f 27/28/26 28/29/28 42/44/42 41/43/41
f 28/29/28 15/30/4 29/45/30 42/44/42
f 29/31/30 30/32/29 44/47/43 43/46/44
f 30/32/29 31/33/31 45/48/45 44/47/43
f 31/33/31 32/34/32 46/49/46 45/48/45
f 32/34/32 33/35/33 47/50/47 46/49/46
f 33/35/33 34/36/34 48/51/48 47/50/47
f 34/36/34 35/37/35 49/52/49 48/51/48
f 35/37/35 36/38/36 50/53/50 49/52/49
f 36/38/36 37/39/37 51/54/51 50/53/50
f 37/39/37 38/40/38 52/55/52 51/54/51
f 38/40/38 39/41/39 53/56/53 52/55/52
f 39/41/39 40/42/40 54/57/54 53/56/53
f 40/42/40 41/43/41 55/58/55 54/57/54
f 41/43/41 42/44/42 56/59/56 55/58/55
f 42/44/42 29/45/30 43/60/44 56/59/56
f 43/46/44 44/47/43 58/62/57 57/61/58
f 44/47/43 45/48/45 59/63/59 58/62/57
f 45/48/45 46/49/46 60/64/60 59/63/59
f 46/49/46 47/50/47 61/65/61 60/64/60
f 47/50/47 48/51/48 62/66/62 61/65/61
f 48/51/48 49/52/49 63/67/63 62/66/62
f 49/52/49 50/53/50 64/68/64 63/67/63
f 50/53/50 51/54/51 65/69/65 64/68/64
f 51/54/51 52/55/52 66/70/66 65/69/65
f 52/55/52 53/56/53 67/71/67 66/70/66
f 53/56/53 54/57/54 68/72/68 67/71/67
f 54/57/54 55/58/55 69/73/69 68/72/68
f 55/58/55 56/59/56 70/74/70 69/73/69
f 56/59/56 43/60/44 57/75/58 70/74/70
f 57/61/58 58/62/57 72/77/71 71/76/72
f 58/62/57 59/63/59 73/78/73 72/77/71
f 59/63/59 60/64/60 74/79/74 73/78/73
f 60/64/60 61/65/61 75/80/75 74/79/74
f 61/65/61 62/66/62 76/81/76 75/80/75
f 62/66/62 63/67/63 77/82/77 76/81/76
f 63/67/63 64/68/64 78/83/78 77/82/77
f 64/68/64 65/69/65 79/84/79 78/83/78
f 65/69/65 66/70/66 80/85/80 79/84/79
f 66/70/66 67/71/67 81/86/81 80/85/80
f 67/71/67 68/72/68 82/87/82 81/86/81
f 68/72/68 69/73/69 83/88/83 82/87/82
f 69/73/69 70/74/70 84/89/84 83/88/83
f 70/74/70 57/75/58 71/90/72 84/89/84
f 71/76/72 72/77/71 86/92/85 85/91/86
f 72/77/71 73/78/73 87/93/87 86/92/85
f 73/78/73 74/79/74 88/94/88 87/93/87
f 74/79/74 75/80/75 89/95/89 88/94/88
f 75/80/75 76/81/76 90/96/90 89/95/89
f 76/81/76 77/82/77 91/97/91 90/96/90
f 77/82/77 78/83/78 92/98/92 91/97/91
f 78/83/78 79/84/79 93/99/93 92/98/92
f 79/84/79 80/85/80 94/100/94 93/99/93
f 80/85/80 81/86/81 95/101/95 94/100/94
f 81/86/81 82/87/82 96/102/96 95/101/95
f 82/87/82 83/88/83 97/103/97 96/102/96
f 83/88/83 84/89/84 98/104/98 97/103/97
f 84/89/84 71/90/72 85/105/86 98/104/98
f 85/91/86 86/92/85 100/107/99 99/106/100
f 86/92/85 87/93/87 101/108/101 100/107/99
f 87/93/87 88/94/88 102/109/102 101/108/101
f 88/94/88 89/95/89 103/110/103 102/109/102
f 89/95/89 90/96/90 104/111/104 103/110/103
f 90/96/90 91/97/91 105/112/105 104/111/104
f 91/97/91 92/98/92 106/113/106 105/112/105
f 92/98/92 93/99/93 107/114/107 106/113/106
f 93/99/93 94/100/94 108/115/108 107/114/107
f 94/100/94 95/101/95 109/116/109 108/115/108
f 95/101/95 96/102/96 110/117/110 109/116/109
f 96/102/96 97/103/97 111/118/111 110/117/110
f 97/103/97 98/104/98 112/119/112 111/118/111
f 98/104/98 85/105/86 99/120/100 112/119/112
f 99/106/100 100/107/99 114/122/113 113/121/114
f 100/107/99 101/108/101 115/123/115 114/122/113
f 101/108/101 102/109/102 116/124/116 115/123/115
f 102/109/102 103/110/103 117/125/117 116/124/116
f 103/110/103 104/111/104 118/126/118 117/125/117
f 104/111/104 105/112/105 119/127/119 118/126/118
f 105/112/105 106/113/106 120/128/120 119/127/119
f 106/113/106 107/114/107 121/129/121 120/128/120
f 107/114/107 108/115/108 122/130/122 121/129/121
f 108/115/108 109/116/109 123/131/123 122/130/122
f 109/116/109 110/117/110 124/132/124 123/131/123
f 110/117/110 111/118/111 125/133/125 124/132/124
f 111/118/111 112/119/112 126/134/126 125/133/125
f 112/119/112 99/120/100 113/135/114 126/134/126
f 113/121/114 114/122/113 128/137/127 127/136/128
f 114/122/113 115/123/115 129/138/129 128/137/127
f 115/123/115 116/124/116 130/139/130 129/138/129
f 116/124/116 117/125/117 131/140/131 130/139/130
f 117/125/117 118/126/118 132/141/132 131/140/131
f 118/126/118 119/127/119 133/142/133 132/141/132
f 119/127/119 120/128/120 134/143/134 133/142/133
f 120/128/120 121/129/121 135/144/135 134/143/134
f 121/129/121 122/130/122 136/145/136 135/144/135
f 122/130/122 123/131/123 137/146/137 136/145/136
f 123/131/123 124/132/124 138/147/138 137/146/137
f 124/132/124 125/133/125 139/148/139 138/147/138
f 125/133/125 126/134/126 140/149/140 139/148/139
f 126/134/126 113/135/114 127/150/128 140/149/140
f 127/136/128 128/137/127 142/152/141 141/151/142
f 128/137/127 129/138/129 143/153/143 142/152/141
f 129/138/129 130/139/130 144/154/144 143/153/143
f 130/139/130 131/140/131 145/155/145 144/154/144
f 131/140/131 132/141/132 146/156/146 145/155/145
f 132/141/132 133/142/133 147/157/147 146/156/146
f 133/142/133 134/143/134 148/158/148 147/157/147
f 134/143/134 135/144/135 149/159/149 148/158/148
f 135/144/135 136/145/136 150/160/150 149/159/149
f 136/145/136 137/146/137 151/161/151 150/160/150
f 137/146/137 138/147/138 152/162/152 151/161/151
f 138/147/138 139/148/139 153/163/153 152/162/152
f 139/148/139 140/149/140 154/164/154 153/163/153
f 140/149/140 127/150/128 141/165/142 154/164/154
f 141/151/142 142/152/141 156/167/155 155/166/156
f 142/152/141 143/153/143 157/168/157 156/167/155
f 143/153/143 144/154/144 158/169/158 157/168/157
f 144/154/144 145/155/145 159/170/159 158/169/158
f 145/155/145 146/156/146 160/171/160 159/170/159
f 146/156/146 147/157/147 161/172/161 160/171/160
f 147/157/147 148/158/148 162/173/162 161/172/161
f 148/158/148 149/159/149 163/174/163 162/173/162
f 149/159/149 150/160/150 164/175/164 163/174/163
f 150/160/150 151/161/151 165/176/165 164/175/164
f 151/161/151 152/162/152 166/177/166 165/176/165
f 152/162/152 153/163/153 167/178/167 166/177/166
f 153/163/153 154/164/154 168/179/168 167/178/167
f 154/164/154 141/165/142 155/180/156 168/179/168
f 155/166/156 156/167/155 170/182/169 169/181/170
f 156/167/155 157/168/157 171/183/171 170/182/169
f 157/168/157 158/169/158 172/184/172 171/183/171
f 158/169/158 159/170/159 173/185/173 172/184/172
f 159/170/159 160/171/160 174/186/174 173/185/173
f 160/171/160 161/172/161 175/187/175 174/186/174
f 161/172/161 162/173/162 176/188/176 175/187/175
f 162/173/162 163/174/163 177/189/177 176/188/176
f 163/174/163 164/175/164 178/190/178 177/189/177
f 164/175/164 165/176/165 179/191/179 178/190/178
f 165/176/165 166/177/166 180/192/180 179/191/179
f 166/177/166 167/178/167 181/193/181 180/192/180
f 167/178/167 168/179/168 182/194/182 181/193/181
f 168/179/168 155/180/156 169/195/170 182/194/182
f 2/2/2 1/1/1 183/196/183
f 3/3/5 2/2/2 183/197/183
f 4/4/7 3/3/5 183/198/183
f 5/5/9 4/4/7 183/199/183
f 6/6/11 5/5/9 183/200/183
f 7/7/13 6/6/11 183/201/183
f 8/8/15 7/7/13 183/202/183
f 9/9/17 8/8/15 183/203/183
f 10/10/19 9/9/17 183/204/183
f 11/11/21 10/10/19 183/205/183
f 12/12/23 11/11/21 183/206/183
f 13/13/25 12/12/23 183/207/183
f 14/14/27 13/13/25 183/208/183
f 1/15/1 14/14/27 183/209/183
f 169/181/170 170/182/169 184/210/184
f 170/182/169 171/183/171 184/211/184
f 171/183/171 172/184/172 184/212/184
f 172/184/172 173/185/173 184/213/184
f 173/185/173 174/186/174 184/214/184
f 174/186/174 175/187/175 184/215/184
f 175/187/175 176/188/176 184/216/184
f 176/188/176 177/189/177 184/217/184
f 177/189/177 178/190/178 184/218/184
f 178/190/178 179/191/179 184/219/184
f 179/191/179 180/192/180 184/220/184
f 180/192/180 181/193/181 184/221/184
f 181/193/181 182/194/182 184/222/184
f 182/194/182 169/195/170 184/223/184
