# This file uses centimeters as units for non-parametric coordinates.

mtllib trap_flower_body.mtl
g default
v 0.037644 0.013933 0.125979
v 0.074732 0.013933 0.108180
v 0.104504 0.013933 0.079792
v 0.124046 0.013933 0.043594
v 0.131446 0.013933 0.003128
v 0.125979 0.013933 -0.037644
v 0.108180 0.013933 -0.074732
v 0.079792 0.013933 -0.104504
v 0.043594 0.013933 -0.124046
v 0.003128 0.013933 -0.131446
v -0.037644 0.013933 -0.125979
v -0.074732 0.013933 -0.108180
v -0.104504 0.013933 -0.079792
v -0.124046 0.013933 -0.043594
v -0.131446 0.013933 -0.003128
v -0.125979 0.013933 0.037644
v -0.108180 0.013933 0.074732
v -0.079792 0.013933 0.104504
v -0.043594 0.013933 0.124046
v -0.003128 0.013933 0.131446
v 0.037644 0.683252 0.125979
v 0.074732 0.683252 0.108180
v 0.104504 0.683252 0.079792
v 0.124046 0.683252 0.043594
v 0.131446 0.683252 0.003128
v 0.125979 0.683252 -0.037644
v 0.108180 0.683252 -0.074732
v 0.079792 0.683252 -0.104504
v 0.043594 0.683252 -0.124046
v 0.003128 0.683252 -0.131446
v -0.037644 0.683252 -0.125979
v -0.074732 0.683252 -0.108180
v -0.104504 0.683252 -0.079792
v -0.124046 0.683252 -0.043594
v -0.131446 0.683252 -0.003128
v -0.125979 0.683252 0.037644
v -0.108180 0.683252 0.074732
v -0.079792 0.683252 0.104504
v -0.043594 0.683252 0.124046
v -0.003128 0.683252 0.131446
v 0.000000 0.013933 0.000000
v 0.000000 0.683252 0.000000
v 0.200741 0.085114 0.016539
v 0.298631 0.074115 0.019389
v 0.299149 0.074183 -0.003670
v 0.201258 0.085181 -0.006520
v 0.414734 0.106575 0.022475
v 0.415251 0.106643 -0.000584
v 0.535145 0.179448 0.025408
v 0.535662 0.179515 0.002349
v 0.621171 0.269817 0.027245
v 0.621689 0.269884 0.004186
v 0.701620 0.397731 0.028738
v 0.702137 0.397799 0.005679
v 0.740740 0.475278 0.029401
v 0.741279 0.475312 0.006342
v 0.701817 0.535605 0.004799
v 0.701278 0.535571 0.027859
v 0.622351 0.518845 0.025645
v 0.622868 0.518912 0.002586
v 0.477765 0.488924 0.021658
v 0.478283 0.488991 -0.001402
v 0.356303 0.452698 0.018441
v 0.356820 0.452765 -0.004618
v 0.235892 0.379825 0.015508
v 0.236409 0.379893 -0.007551
v 0.155200 0.293262 0.013801
v 0.155717 0.293329 -0.009258
v 0.121196 0.206649 0.013439
v 0.121714 0.206717 -0.009620
v 0.137243 0.132681 0.014411
v 0.137761 0.132749 -0.008648
v 0.418721 0.288744 0.021267
v 0.778301 0.555206 0.030026
v 0.419239 0.288812 -0.001792
v 0.778862 0.555206 0.006966
v -0.199481 0.085114 0.007016
v -0.198901 0.085181 -0.016042
v -0.296816 0.074183 -0.017850
v -0.297396 0.074115 0.005207
v -0.412934 0.106643 -0.020289
v -0.413514 0.106575 0.002768
v -0.533348 0.179515 -0.023087
v -0.533928 0.179448 -0.000029
v -0.619365 0.269884 -0.025344
v -0.619945 0.269817 -0.002286
v -0.699792 0.397799 -0.027678
v -0.700373 0.397731 -0.004620
v -0.738922 0.475312 -0.028878
v -0.739480 0.475278 -0.005819
v -0.699432 0.535605 -0.028542
v -0.620466 0.518912 -0.026998
v -0.621047 0.518845 -0.003940
v -0.699990 0.535571 -0.005483
v -0.475855 0.488991 -0.024104
v -0.476435 0.488924 -0.001046
v -0.354377 0.452765 -0.021541
v -0.354957 0.452698 0.001517
v -0.233963 0.379893 -0.018743
v -0.234543 0.379825 0.004314
v -0.153281 0.293329 -0.016610
v -0.153861 0.293262 0.006447
v -0.119299 0.206717 -0.015355
v -0.119879 0.206649 0.007703
v -0.135374 0.132749 -0.015147
v -0.135954 0.132681 0.007911
v -0.417439 0.288744 0.001371
v -0.777028 0.555206 -0.006982
v -0.416859 0.288812 -0.021686
v -0.776492 0.555206 -0.030042
vt 0.839343 0.657107
vt 0.845358 0.657107
vt 0.845358 0.837987
vt 0.839343 0.837987
vt 0.851372 0.657107
vt 0.851372 0.837987
vt 0.857386 0.657107
vt 0.857386 0.837987
vt 0.863401 0.657107
vt 0.863401 0.837987
vt 0.869415 0.657107
vt 0.869415 0.837987
vt 0.875429 0.657107
vt 0.875429 0.837987
vt 0.881443 0.657107
vt 0.881443 0.837987
vt 0.887458 0.657107
vt 0.887458 0.837987
vt 0.893472 0.657107
vt 0.893472 0.837987
vt 0.899486 0.657107
vt 0.899486 0.837987
vt 0.905500 0.657107
vt 0.905500 0.837987
vt 0.911514 0.657107
vt 0.911514 0.837987
vt 0.917529 0.657107
vt 0.917529 0.837987
vt 0.923543 0.657107
vt 0.923543 0.837987
vt 0.929557 0.657107
vt 0.929557 0.837987
vt 0.935571 0.657107
vt 0.935571 0.837987
vt 0.941586 0.657107
vt 0.941586 0.837987
vt 0.947600 0.657107
vt 0.947600 0.837987
vt 0.953614 0.657107
vt 0.953614 0.837987
vt 0.959628 0.657107
vt 0.959628 0.837987
vt 0.960306 0.537740
vt 0.970985 0.558698
vt 0.899486 0.578922
vt 0.943675 0.521109
vt 0.922717 0.510430
vt 0.899486 0.506751
vt 0.876255 0.510430
vt 0.855297 0.521109
vt 0.838666 0.537740
vt 0.827987 0.558698
vt 0.824308 0.581929
vt 0.827987 0.605160
vt 0.838666 0.626118
vt 0.855297 0.642749
vt 0.876255 0.653428
vt 0.899486 0.657107
vt 0.922717 0.653428
vt 0.943675 0.642749
vt 0.960306 0.626118
vt 0.970985 0.605160
vt 0.974664 0.581929
vt 0.970985 0.935944
vt 0.960306 0.956901
vt 0.899486 0.909705
vt 0.943675 0.973533
vt 0.922717 0.984211
vt 0.899486 0.987891
vt 0.876255 0.984211
vt 0.855297 0.973533
vt 0.838666 0.956901
vt 0.827987 0.935944
vt 0.824308 0.912712
vt 0.827987 0.889481
vt 0.838666 0.868524
vt 0.855297 0.851892
vt 0.876255 0.841214
vt 0.899486 0.837535
vt 0.922717 0.841214
vt 0.943675 0.851892
vt 0.960306 0.868524
vt 0.970985 0.889481
vt 0.974664 0.912712
vt 0.638903 0.659624
vt 0.638903 0.840504
vt 0.647495 0.840504
vt 0.647495 0.659624
vt 0.656086 0.840504
vt 0.656086 0.659624
vt 0.664678 0.840504
vt 0.664678 0.659624
vt 0.673270 0.840504
vt 0.673270 0.659624
vt 0.681862 0.840504
vt 0.681862 0.659624
vt 0.686158 0.840504
vt 0.686158 0.659624
vt 0.694750 0.840504
vt 0.699045 0.840504
vt 0.699045 0.659624
vt 0.694750 0.659624
vt 0.707637 0.840504
vt 0.707637 0.659624
vt 0.716229 0.840504
vt 0.716229 0.659624
vt 0.724821 0.840504
vt 0.724821 0.659624
vt 0.733413 0.840504
vt 0.733413 0.659624
vt 0.742004 0.840504
vt 0.742004 0.659624
vt 0.750596 0.840504
vt 0.750596 0.659624
vt 0.759188 0.840504
vt 0.759188 0.659624
vt 0.745918 0.525670
vt 0.699045 0.581439
vt 0.766779 0.551828
vt 0.715774 0.511153
vt 0.682317 0.511153
vt 0.652173 0.525670
vt 0.631312 0.551828
vt 0.627590 0.568137
vt 0.623867 0.584447
vt 0.627590 0.600756
vt 0.652173 0.643223
vt 0.631312 0.617065
vt 0.682317 0.657740
vt 0.715774 0.657740
vt 0.745918 0.643223
vt 0.766779 0.617065
vt 0.774224 0.584447
vt 0.766779 0.947848
vt 0.699045 0.912223
vt 0.745918 0.974006
vt 0.715774 0.988523
vt 0.682317 0.988523
vt 0.652173 0.974006
vt 0.631312 0.947848
vt 0.623867 0.915230
vt 0.627590 0.931539
vt 0.627590 0.898921
vt 0.631312 0.882612
vt 0.652173 0.856453
vt 0.682317 0.841937
vt 0.715774 0.841937
vt 0.745918 0.856453
vt 0.766779 0.882612
vt 0.774224 0.915230
vt 0.690454 0.840504
vt 0.690454 0.659624
vt 0.638903 0.659624
vt 0.647495 0.659624
vt 0.647495 0.840504
vt 0.638903 0.840504
vt 0.656086 0.659624
vt 0.656086 0.840504
vt 0.664678 0.659624
vt 0.664678 0.840504
vt 0.673270 0.659624
vt 0.673270 0.840504
vt 0.681862 0.659624
vt 0.681862 0.840504
vt 0.686158 0.659624
vt 0.686158 0.840504
vt 0.694750 0.840504
vt 0.694750 0.659624
vt 0.699045 0.659624
vt 0.699045 0.840504
vt 0.707637 0.659624
vt 0.707637 0.840504
vt 0.716229 0.659624
vt 0.716229 0.840504
vt 0.724821 0.659624
vt 0.724821 0.840504
vt 0.733413 0.659624
vt 0.733413 0.840504
vt 0.742004 0.659624
vt 0.742004 0.840504
vt 0.750596 0.659624
vt 0.750596 0.840504
vt 0.759188 0.659624
vt 0.759188 0.840504
vt 0.745918 0.525670
vt 0.766779 0.551828
vt 0.699045 0.581439
vt 0.715774 0.511153
vt 0.682317 0.511153
vt 0.652173 0.525670
vt 0.631312 0.551828
vt 0.627590 0.568137
vt 0.627590 0.600756
vt 0.623867 0.584447
vt 0.652173 0.643223
vt 0.631312 0.617065
vt 0.682317 0.657740
vt 0.715774 0.657740
vt 0.745918 0.643223
vt 0.766779 0.617065
vt 0.774224 0.584447
vt 0.766779 0.947848
vt 0.745918 0.974006
vt 0.699045 0.912223
vt 0.715774 0.988523
vt 0.682317 0.988523
vt 0.652173 0.974006
vt 0.631312 0.947848
vt 0.627590 0.931539
vt 0.623867 0.915230
vt 0.627590 0.898921
vt 0.631312 0.882612
vt 0.652173 0.856453
vt 0.682317 0.841937
vt 0.715774 0.841937
vt 0.745918 0.856453
vt 0.766779 0.882612
vt 0.774224 0.915230
vt 0.690454 0.659624
vt 0.690454 0.840504
vn 0.286306 0.000000 0.958138
vn 0.568375 0.000000 0.822770
vn 0.568375 0.000000 0.822770
vn 0.286306 0.000000 0.958138
vn 0.794806 0.000000 0.606863
vn 0.794806 0.000000 0.606863
vn 0.943437 0.000000 0.331552
vn 0.943437 0.000000 0.331552
vn 0.999717 0.000000 0.023787
vn 0.999717 0.000000 0.023787
vn 0.958138 0.000000 -0.286307
vn 0.958138 0.000000 -0.286307
vn 0.822770 0.000000 -0.568375
vn 0.822770 0.000000 -0.568375
vn 0.606863 0.000000 -0.794806
vn 0.606863 0.000000 -0.794806
vn 0.331552 0.000000 -0.943437
vn 0.331552 0.000000 -0.943437
vn 0.023787 0.000000 -0.999717
vn 0.023787 0.000000 -0.999717
vn -0.286307 0.000000 -0.958138
vn -0.286307 0.000000 -0.958138
vn -0.568375 0.000000 -0.822770
vn -0.568375 0.000000 -0.822770
vn -0.794806 0.000000 -0.606863
vn -0.794806 0.000000 -0.606863
vn -0.943437 0.000000 -0.331552
vn -0.943437 0.000000 -0.331552
vn -0.999717 0.000000 -0.023787
vn -0.999717 0.000000 -0.023787
vn -0.958138 0.000000 0.286307
vn -0.958138 0.000000 0.286307
vn -0.822770 0.000000 0.568375
vn -0.822770 0.000000 0.568375
vn -0.606863 0.000000 0.794806
vn -0.606863 0.000000 0.794806
vn -0.331552 0.000000 0.943437
vn -0.331552 0.000000 0.943437
vn -0.023788 0.000000 0.999717
vn -0.023788 0.000000 0.999717
vn 0.000000 -1.000000 0.000000
vn 0.000000 -1.000000 0.000000
vn 0.000000 -1.000000 -0.000000
vn 0.000000 -1.000000 0.000000
vn 0.000000 -1.000000 0.000000
vn 0.000000 -1.000000 -0.000000
vn 0.000000 -1.000000 -0.000000
vn 0.000000 -1.000000 -0.000000
vn 0.000000 -1.000000 -0.000000
vn 0.000000 -1.000000 0.000000
vn 0.000000 -1.000000 -0.000000
vn 0.000000 -1.000000 0.000000
vn 0.000000 -1.000000 0.000000
vn 0.000000 -1.000000 0.000000
vn 0.000000 -1.000000 0.000000
vn 0.000000 -1.000000 0.000000
vn 0.000000 -1.000000 0.000000
vn 0.000000 -1.000000 0.000000
vn 0.000000 -1.000000 0.000000
vn 0.000000 -1.000000 -0.000000
vn 0.000000 -1.000000 0.000000
vn 0.000000 1.000000 -0.000000
vn 0.000000 1.000000 -0.000000
vn 0.000000 1.000000 -0.000000
vn 0.000000 1.000000 0.000000
vn 0.000000 1.000000 0.000000
vn 0.000000 1.000000 -0.000001
vn 0.000000 1.000000 -0.000001
vn 0.000000 1.000000 0.000000
vn 0.000000 1.000000 0.000000
vn 0.000000 1.000000 0.000000
vn 0.000000 1.000000 0.000000
vn 0.000000 1.000000 0.000000
vn 0.000000 1.000000 -0.000000
vn 0.000000 1.000000 -0.000001
vn 0.000000 1.000000 0.000001
vn 0.000000 1.000000 0.000001
vn 0.000000 1.000000 -0.000001
vn 0.000000 1.000000 -0.000001
vn 0.000000 1.000000 0.000000
vn 0.000000 1.000000 0.000000
vn 0.000000 1.000000 -0.000000
vn -0.339411 -0.940581 -0.010370
vn -0.342234 -0.939557 -0.010430
vn 0.099190 -0.995068 -0.000692
vn 0.100429 -0.994944 -0.000664
vn 0.406556 -0.913603 0.006439
vn 0.406819 -0.913486 0.006445
vn 0.620147 -0.784400 0.011611
vn 0.619965 -0.784544 0.011606
vn 0.795066 -0.606311 0.016058
vn 0.794783 -0.606682 0.016050
vn 0.864102 -0.502989 0.018182
vn 0.863968 -0.503219 0.018176
vn 0.898751 -0.437985 0.020378
vn 0.898719 -0.438052 0.020373
vn -0.226681 0.973961 -0.003879
vn -0.204158 0.978936 -0.002006
vn -0.204170 0.978933 -0.002008
vn -0.226788 0.973936 -0.003886
vn -0.241314 0.970444 -0.002573
vn -0.241117 0.970493 -0.002568
vn -0.411134 0.911551 -0.006549
vn -0.410900 0.911657 -0.006544
vn -0.620947 0.783766 -0.011632
vn -0.621146 0.783609 -0.011637
vn -0.833178 0.552741 -0.017076
vn -0.833840 0.551741 -0.017094
vn -0.993384 0.112722 -0.021959
vn -0.993764 0.109318 -0.021977
vn -0.837706 -0.545740 -0.020393
vn -0.834903 -0.550022 -0.020342
vn -0.028389 0.007140 0.999572
vn -0.028565 0.006796 0.999569
vn -0.028260 0.007042 0.999576
vn -0.028649 0.007259 0.999563
vn -0.028797 0.007199 0.999559
vn -0.028893 0.006666 0.999560
vn -0.028749 0.006099 0.999568
vn -0.028512 0.005633 0.999578
vn -0.029062 0.006362 0.999557
vn -0.030005 0.007655 0.999521
vn -0.028777 0.006537 0.999565
vn -0.029344 0.006950 0.999545
vn -0.028326 0.006447 0.999578
vn -0.028226 0.006544 0.999580
vn -0.028202 0.006798 0.999579
vn -0.028222 0.006969 0.999577
vn -0.028235 0.007015 0.999577
vn 0.028260 -0.007044 -0.999576
vn 0.028565 -0.006796 -0.999569
vn 0.028387 -0.007139 -0.999572
vn 0.028652 -0.007260 -0.999563
vn 0.028797 -0.007202 -0.999559
vn 0.028893 -0.006666 -0.999560
vn 0.028755 -0.006113 -0.999568
vn 0.029060 -0.006368 -0.999557
vn 0.028520 -0.005651 -0.999577
vn 0.029983 -0.007634 -0.999521
vn 0.029331 -0.006937 -0.999546
vn 0.028777 -0.006537 -0.999564
vn 0.028324 -0.006446 -0.999578
vn 0.028226 -0.006541 -0.999580
vn 0.028202 -0.006799 -0.999579
vn 0.028221 -0.006968 -0.999577
vn 0.028235 -0.007015 -0.999577
vn 0.833771 0.551737 0.020303
vn 0.838823 0.544021 0.020418
vn 0.339521 -0.940581 0.005786
vn -0.100284 -0.994944 -0.005440
vn -0.099045 -0.995068 -0.005409
vn 0.342341 -0.939557 0.005860
vn -0.406665 -0.913486 -0.012912
vn -0.406403 -0.913603 -0.012906
vn -0.619816 -0.784544 -0.017895
vn -0.619997 -0.784400 -0.017899
vn -0.794646 -0.606683 -0.021770
vn -0.794929 -0.606311 -0.021776
vn -0.863855 -0.503219 -0.022937
vn -0.863989 -0.502989 -0.022938
vn -0.898671 -0.438051 -0.022396
vn -0.898704 -0.437984 -0.022393
vn 0.226610 0.973961 0.006906
vn 0.226717 0.973936 0.006904
vn 0.204035 0.978933 0.007702
vn 0.204022 0.978936 0.007704
vn 0.240966 0.970493 0.008899
vn 0.241163 0.970444 0.008904
vn 0.410746 0.911657 0.013004
vn 0.410980 0.911551 0.013009
vn 0.620997 0.783608 0.017916
vn 0.620798 0.783766 0.017912
vn 0.833710 0.551741 0.022584
vn 0.833047 0.552741 0.022571
vn 0.993685 0.109318 0.025312
vn 0.993304 0.112722 0.025313
vn 0.834926 -0.550021 0.019390
vn 0.837728 -0.545740 0.019473
vn -0.019184 0.007140 0.999790
vn -0.019313 0.007042 0.999789
vn -0.019008 0.006796 0.999796
vn -0.018923 0.007259 0.999795
vn -0.018775 0.007199 0.999798
vn -0.018679 0.006666 0.999803
vn -0.018824 0.006099 0.999804
vn -0.019061 0.005633 0.999802
vn -0.017567 0.007655 0.999816
vn -0.018510 0.006362 0.999808
vn -0.018796 0.006537 0.999802
vn -0.018228 0.006950 0.999810
vn -0.019247 0.006447 0.999794
vn -0.019346 0.006544 0.999791
vn -0.019371 0.006798 0.999789
vn -0.019351 0.006969 0.999788
vn -0.019337 0.007015 0.999788
vn 0.019312 -0.007044 -0.999789
vn 0.019185 -0.007139 -0.999790
vn 0.019008 -0.006796 -0.999796
vn 0.018921 -0.007260 -0.999795
vn 0.018775 -0.007202 -0.999798
vn 0.018679 -0.006666 -0.999803
vn 0.018818 -0.006112 -0.999804
vn 0.019053 -0.005651 -0.999803
vn 0.018512 -0.006368 -0.999808
vn 0.017589 -0.007634 -0.999816
vn 0.018241 -0.006937 -0.999810
vn 0.018795 -0.006537 -0.999802
vn 0.019249 -0.006446 -0.999794
vn 0.019347 -0.006541 -0.999792
vn 0.019371 -0.006799 -0.999789
vn 0.019352 -0.006968 -0.999788
vn 0.019337 -0.007015 -0.999788
vn -0.838846 0.544020 -0.019504
vn -0.833792 0.551738 -0.019379
s 1
g polySurface78
usemtl initialShadingGroup
f 1/1/1 2/2/2 22/3/3 21/4/4
f 2/2/2 3/5/5 23/6/6 22/3/3
f 3/5/5 4/7/7 24/8/8 23/6/6
f 4/7/7 5/9/9 25/10/10 24/8/8
f 5/9/9 6/11/11 26/12/12 25/10/10
f 6/11/11 7/13/13 27/14/14 26/12/12
f 7/13/13 8/15/15 28/16/16 27/14/14
f 8/15/15 9/17/17 29/18/18 28/16/16
f 9/17/17 10/19/19 30/20/20 29/18/18
f 10/19/19 11/21/21 31/22/22 30/20/20
f 11/21/21 12/23/23 32/24/24 31/22/22
f 12/23/23 13/25/25 33/26/26 32/24/24
f 13/25/25 14/27/27 34/28/28 33/26/26
f 14/27/27 15/29/29 35/30/30 34/28/28
f 15/29/29 16/31/31 36/32/32 35/30/30
f 16/31/31 17/33/33 37/34/34 36/32/32
f 17/33/33 18/35/35 38/36/36 37/34/34
f 18/35/35 19/37/37 39/38/38 38/36/36
f 19/37/37 20/39/39 40/40/40 39/38/38
f 20/39/39 1/41/1 21/42/4 40/40/40
s 2
f 2/43/41 1/44/42 41/45/43
f 3/46/44 2/43/41 41/45/43
f 4/47/45 3/46/44 41/45/43
f 5/48/46 4/47/45 41/45/43
f 6/49/47 5/48/46 41/45/43
f 7/50/48 6/49/47 41/45/43
f 8/51/49 7/50/48 41/45/43
f 9/52/50 8/51/49 41/45/43
f 10/53/51 9/52/50 41/45/43
f 11/54/52 10/53/51 41/45/43
f 12/55/53 11/54/52 41/45/43
f 13/56/54 12/55/53 41/45/43
f 14/57/55 13/56/54 41/45/43
f 15/58/56 14/57/55 41/45/43
f 16/59/57 15/58/56 41/45/43
f 17/60/58 16/59/57 41/45/43
f 18/61/59 17/60/58 41/45/43
f 19/62/60 18/61/59 41/45/43
f 20/63/61 19/62/60 41/45/43
f 1/44/42 20/63/61 41/45/43
s 3
f 21/64/62 22/65/63 42/66/64
f 22/65/63 23/67/65 42/66/64
f 23/67/65 24/68/66 42/66/64
f 24/68/66 25/69/67 42/66/64
f 25/69/67 26/70/68 42/66/64
f 26/70/68 27/71/69 42/66/64
f 27/71/69 28/72/70 42/66/64
f 28/72/70 29/73/71 42/66/64
f 29/73/71 30/74/72 42/66/64
f 30/74/72 31/75/73 42/66/64
f 31/75/73 32/76/74 42/66/64
f 32/76/74 33/77/75 42/66/64
f 33/77/75 34/78/76 42/66/64
f 34/78/76 35/79/77 42/66/64
f 35/79/77 36/80/78 42/66/64
f 36/80/78 37/81/79 42/66/64
f 37/81/79 38/82/80 42/66/64
f 38/82/80 39/83/81 42/66/64
f 39/83/81 40/84/82 42/66/64
f 40/84/82 21/64/62 42/66/64
s 4
f 43/85/83 46/86/84 45/87/85 44/88/86
f 44/88/86 45/87/85 48/89/87 47/90/88
f 47/90/88 48/89/87 50/91/89 49/92/90
f 49/92/90 50/91/89 52/93/91 51/94/92
f 51/94/92 52/93/91 54/95/93 53/96/94
f 53/96/94 54/95/93 56/97/95 55/98/96
f 57/99/97 60/100/98 59/101/99 58/102/100
f 59/101/99 60/100/98 62/103/101 61/104/102
f 61/104/102 62/103/101 64/105/103 63/106/104
f 63/106/104 64/105/103 66/107/105 65/108/106
f 65/108/106 66/107/105 68/109/107 67/110/108
f 67/110/108 68/109/107 70/111/109 69/112/110
f 69/112/110 70/111/109 72/113/111 71/114/112
f 71/114/112 72/113/111 46/115/84 43/116/83
s 6
f 44/117/113 73/118/114 43/119/115
f 47/120/116 73/118/114 44/117/113
f 49/121/117 73/118/114 47/120/116
f 51/122/118 73/118/114 49/121/117
f 53/123/119 73/118/114 51/122/118
f 73/118/114 53/123/119 55/124/120
f 73/118/114 74/125/121 58/126/122
f 61/127/123 73/118/114 59/128/124
f 63/129/125 73/118/114 61/127/123
f 65/130/126 73/118/114 63/129/125
f 67/131/127 73/118/114 65/130/126
f 69/132/128 73/118/114 67/131/127
f 71/133/129 73/118/114 69/132/128
f 43/119/115 73/118/114 71/133/129
s 8
f 46/134/130 75/135/131 45/136/132
f 45/136/132 75/135/131 48/137/133
f 48/137/133 75/135/131 50/138/134
f 50/138/134 75/135/131 52/139/135
f 52/139/135 75/135/131 54/140/136
f 75/135/131 76/141/137 56/142/138
f 76/141/137 75/135/131 57/143/139
f 60/144/140 75/135/131 62/145/141
f 62/145/141 75/135/131 64/146/142
f 64/146/142 75/135/131 66/147/143
f 66/147/143 75/135/131 68/148/144
f 68/148/144 75/135/131 70/149/145
f 70/149/145 75/135/131 72/150/146
f 72/150/146 75/135/131 46/134/130
f 75/135/131 60/144/140 57/143/139
f 54/140/136 75/135/131 56/142/138
s 6
f 74/125/121 73/118/114 55/124/120
f 59/128/124 73/118/114 58/126/122
s 4
f 56/97/95 76/151/147 74/152/148 55/98/96
f 74/152/148 76/151/147 57/99/97 58/102/100
s 10
f 77/153/149 80/154/150 79/155/151 78/156/152
f 80/154/150 82/157/153 81/158/154 79/155/151
f 82/157/153 84/159/155 83/160/156 81/158/154
f 84/159/155 86/161/157 85/162/158 83/160/156
f 86/161/157 88/163/159 87/164/160 85/162/158
f 88/163/159 90/165/161 89/166/162 87/164/160
f 91/167/163 94/168/164 93/169/165 92/170/166
f 93/169/165 96/171/167 95/172/168 92/170/166
f 96/171/167 98/173/169 97/174/170 95/172/168
f 98/173/169 100/175/171 99/176/172 97/174/170
f 100/175/171 102/177/173 101/178/174 99/176/172
f 102/177/173 104/179/175 103/180/176 101/178/174
f 104/179/175 106/181/177 105/182/178 103/180/176
f 106/181/177 77/183/149 78/184/152 105/182/178
s 12
f 80/185/179 77/186/180 107/187/181
f 82/188/182 80/185/179 107/187/181
f 84/189/183 82/188/182 107/187/181
f 86/190/184 84/189/183 107/187/181
f 88/191/185 86/190/184 107/187/181
f 107/187/181 90/192/186 88/191/185
f 107/187/181 94/193/187 108/194/188
f 96/195/189 93/196/190 107/187/181
f 98/197/191 96/195/189 107/187/181
f 100/198/192 98/197/191 107/187/181
f 102/199/193 100/198/192 107/187/181
f 104/200/194 102/199/193 107/187/181
f 106/201/195 104/200/194 107/187/181
f 77/186/180 106/201/195 107/187/181
s 14
f 78/202/196 79/203/197 109/204/198
f 79/203/197 81/205/199 109/204/198
f 81/205/199 83/206/200 109/204/198
f 83/206/200 85/207/201 109/204/198
f 85/207/201 87/208/202 109/204/198
f 109/204/198 89/209/203 110/210/204
f 110/210/204 91/211/205 109/204/198
f 92/212/206 95/213/207 109/204/198
f 95/213/207 97/214/208 109/204/198
f 97/214/208 99/215/209 109/204/198
f 99/215/209 101/216/210 109/204/198
f 101/216/210 103/217/211 109/204/198
f 103/217/211 105/218/212 109/204/198
f 105/218/212 78/202/196 109/204/198
f 109/204/198 91/211/205 92/212/206
f 87/208/202 89/209/203 109/204/198
s 12
f 108/194/188 90/192/186 107/187/181
f 93/196/190 94/193/187 107/187/181
s 10
f 89/166/162 90/165/161 108/219/213 110/220/214
f 108/219/213 94/168/164 91/167/163 110/220/214
