# This file uses centimeters as units for non-parametric coordinates.

mtllib fence.mtl
g default
v -2.518522 0.050415 0.206611
v -1.520060 0.050415 0.206611
v -2.518522 0.931708 0.206611
v -1.520060 0.931708 0.206611
v -2.518522 1.813001 0.206611
v -1.520060 1.813001 0.206611
v -2.518522 2.694294 0.206611
v -1.520060 2.694294 0.206611
v -2.019291 3.575588 0.206611
v -2.019290 3.575588 0.206611
v -2.019291 3.575588 -0.206611
v -2.019290 3.575588 -0.206611
v -2.518522 2.694294 -0.206611
v -1.520060 2.694294 -0.206611
v -2.518522 1.813001 -0.206611
v -1.520060 1.813001 -0.206611
v -2.518522 0.931708 -0.206611
v -1.520060 0.931708 -0.206611
v -2.518522 0.050415 -0.206611
v -1.520060 0.050415 -0.206611
v -2.362158 1.186773 0.113145
v 1.570266 1.186773 0.113145
v -2.362158 2.017981 0.113145
v 1.570266 2.017981 0.113145
v -2.362158 2.017981 -0.113145
v 1.570266 2.017981 -0.113145
v -2.362158 1.186773 -0.113145
v 1.570266 1.186773 -0.113145
v 1.377340 0.050415 0.206611
v 2.375802 0.050415 0.206611
v 1.377340 0.931708 0.206611
v 2.375802 0.931708 0.206611
v 1.377340 1.813001 0.206611
v 2.375802 1.813001 0.206611
v 1.377340 2.694294 0.206611
v 2.375802 2.694294 0.206611
v 1.876570 3.575588 0.206611
v 1.876571 3.575588 0.206611
v 1.876570 3.575588 -0.206611
v 1.876571 3.575588 -0.206611
v 1.377340 2.694294 -0.206611
v 2.375802 2.694294 -0.206611
v 1.377340 1.813001 -0.206611
v 2.375802 1.813001 -0.206611
v 1.377340 0.931708 -0.206611
v 2.375802 0.931708 -0.206611
v 1.377340 0.050415 -0.206611
v 2.375802 0.050415 -0.206611
vt 0.350000 0.281692
vt 0.831435 0.184433
vt 0.350000 0.344192
vt 0.133122 0.635425
vt 0.350000 0.406692
vt 0.133122 0.697925
vt 0.350000 0.469192
vt 0.133122 0.760425
vt 0.133122 0.817300
vt 0.627039 0.189164
vt 0.627039 0.352957
vt 0.829216 0.352957
vt 0.627039 0.534948
vt 0.829216 0.534948
vt 0.627039 0.716940
vt 0.829216 0.716940
vt 0.829216 0.880732
vt 0.358122 0.572925
vt 0.358122 0.635425
vt 0.358122 0.697925
vt 0.358122 0.760425
vt 0.358122 0.822925
vt 0.125000 0.281692
vt 0.125000 0.344192
vt 0.125000 0.406692
vt 0.125000 0.469192
vt 0.125000 0.531692
vt 0.627039 0.880732
vt 0.829216 0.189164
vt 0.628935 0.878671
vt 0.831435 0.718462
vt 0.831435 0.878671
vt 0.831435 0.540452
vt 0.831435 0.362442
vt 0.133122 0.572925
vt 0.628935 0.540452
vt 0.628935 0.362442
vt 0.628935 0.184433
vt 0.628935 0.718462
vt 0.350000 0.526067
vt 0.543930 0.129240
vt 0.544112 0.038446
vt 0.634906 0.038628
vt 0.634724 0.129422
vt 0.725701 0.038810
vt 0.725519 0.129604
vt 0.816495 0.038992
vt 0.816313 0.129786
vt 0.907289 0.039174
vt 0.907107 0.129969
vt 0.628935 0.184433
vt 0.831435 0.184433
vt 0.831435 0.362442
vt 0.628935 0.362442
vt 0.831435 0.540452
vt 0.628935 0.540452
vt 0.831435 0.718462
vt 0.628935 0.718462
vt 0.831435 0.878671
vt 0.628935 0.878671
vt 0.627039 0.189164
vt 0.829216 0.189164
vt 0.829216 0.352957
vt 0.627039 0.352957
vt 0.829216 0.534948
vt 0.627039 0.534948
vt 0.829216 0.716940
vt 0.627039 0.716940
vt 0.829216 0.880732
vt 0.627039 0.880732
vt 0.133122 0.572925
vt 0.358122 0.572925
vt 0.358122 0.635425
vt 0.133122 0.635425
vt 0.358122 0.697925
vt 0.133122 0.697925
vt 0.358122 0.760425
vt 0.133122 0.760425
vt 0.358122 0.822925
vt 0.133122 0.817300
vt 0.125000 0.281692
vt 0.350000 0.281692
vt 0.350000 0.344192
vt 0.125000 0.344192
vt 0.350000 0.406692
vt 0.125000 0.406692
vt 0.350000 0.469192
vt 0.125000 0.469192
vt 0.350000 0.526067
vt 0.125000 0.531692
vn 0.000000 0.000000 1.000000
vn 0.000000 0.000000 1.000000
vn 0.000000 0.000000 1.000000
vn 0.000000 0.000000 1.000000
vn 0.000000 0.000000 1.000000
vn 0.000000 0.000000 1.000000
vn 0.000000 -0.000000 1.000000
vn 0.000000 -0.000000 1.000000
vn 0.000000 -0.000000 1.000000
vn 0.000000 -0.000000 1.000000
vn 0.000000 -0.000000 -1.000000
vn 0.000000 -0.000000 -1.000000
vn 0.000000 -0.000000 -1.000000
vn 0.000000 -0.000000 -1.000000
vn 0.000000 0.000000 -1.000000
vn 0.000000 0.000000 -1.000000
vn 0.000000 0.000000 -1.000000
vn 0.000000 0.000000 -1.000000
vn 0.000000 0.000000 -1.000000
vn 0.000000 0.000000 -1.000000
vn 1.000000 0.000000 0.000000
vn 1.000000 0.000000 0.000000
vn 1.000000 0.000000 0.000000
vn 1.000000 0.000000 0.000000
vn 1.000000 0.000000 0.000000
vn 1.000000 0.000000 0.000000
vn 0.962151 0.272517 0.000000
vn 0.962151 0.272517 0.000000
vn 0.870094 0.492886 0.000000
vn 0.870094 0.492886 0.000000
vn -1.000000 0.000000 0.000000
vn -1.000000 0.000000 0.000000
vn -1.000000 0.000000 0.000000
vn -1.000000 0.000000 0.000000
vn -1.000000 0.000000 0.000000
vn -1.000000 0.000000 0.000000
vn -0.962151 0.272517 0.000000
vn -0.962151 0.272517 0.000000
vn -0.870094 0.492886 0.000000
vn -0.870094 0.492886 0.000000
vn 0.000000 0.000000 1.000000
vn 0.000000 0.000000 1.000000
vn 0.000000 0.000000 1.000000
vn 0.000000 0.000000 1.000000
vn 0.000000 1.000000 0.000000
vn 0.000000 1.000000 0.000000
vn 0.000000 1.000000 0.000000
vn 0.000000 1.000000 0.000000
vn 0.000000 0.000000 -1.000000
vn 0.000000 0.000000 -1.000000
vn 0.000000 0.000000 -1.000000
vn 0.000000 0.000000 -1.000000
vn 0.000000 -1.000000 0.000000
vn 0.000000 -1.000000 0.000000
vn 0.000000 -1.000000 0.000000
vn 0.000000 -1.000000 0.000000
vn 0.000000 0.000000 1.000000
vn 0.000000 0.000000 1.000000
vn 0.000000 0.000000 1.000000
vn 0.000000 0.000000 1.000000
vn 0.000000 0.000000 1.000000
vn 0.000000 0.000000 1.000000
vn 0.000000 -0.000000 1.000000
vn 0.000000 -0.000000 1.000000
vn 0.000000 -0.000000 1.000000
vn 0.000000 -0.000000 1.000000
vn 0.000000 -0.000000 -1.000000
vn 0.000000 -0.000000 -1.000000
vn 0.000000 -0.000000 -1.000000
vn 0.000000 -0.000000 -1.000000
vn 0.000000 0.000000 -1.000000
vn 0.000000 0.000000 -1.000000
vn 0.000000 0.000000 -1.000000
vn 0.000000 0.000000 -1.000000
vn 0.000000 0.000000 -1.000000
vn 0.000000 0.000000 -1.000000
vn 1.000000 0.000000 0.000000
vn 1.000000 0.000000 0.000000
vn 1.000000 0.000000 0.000000
vn 1.000000 0.000000 0.000000
vn 1.000000 0.000000 0.000000
vn 1.000000 0.000000 0.000000
vn 0.962151 0.272517 0.000000
vn 0.962151 0.272517 0.000000
vn 0.870094 0.492886 0.000000
vn 0.870094 0.492886 0.000000
vn -1.000000 0.000000 0.000000
vn -1.000000 0.000000 0.000000
vn -1.000000 0.000000 0.000000
vn -1.000000 0.000000 0.000000
vn -1.000000 0.000000 0.000000
vn -1.000000 0.000000 0.000000
vn -0.962151 0.272517 0.000000
vn -0.962151 0.272517 0.000000
vn -0.870094 0.492886 0.000000
vn -0.870094 0.492886 0.000000
s 1
g pCube3
usemtl initialShadingGroup
f 1/38/1 2/2/2 4/34/3 3/37/4
f 3/37/4 4/34/3 6/33/5 5/36/6
f 5/36/6 6/33/5 8/31/7 7/39/8
f 7/39/8 8/31/7 10/32/9 9/30/10
s 2
f 11/10/11 12/29/12 14/12/13 13/11/14
f 13/11/14 14/12/13 16/14/15 15/13/16
f 15/13/16 16/14/15 18/16/17 17/15/18
f 17/15/18 18/16/17 20/17/19 19/28/20
s 3
f 2/35/21 20/18/22 18/19/23 4/4/24
f 4/4/24 18/19/23 16/20/25 6/6/26
f 6/6/26 16/20/25 14/21/27 8/8/28
f 8/8/28 14/21/27 12/22/29 10/9/30
s 4
f 19/23/31 1/1/32 3/3/33 17/24/34
f 17/24/34 3/3/33 5/5/35 15/25/36
f 15/25/36 5/5/35 7/7/37 13/26/38
f 13/26/38 7/7/37 9/40/39 11/27/40
s off
f 21/41/41 22/42/42 24/43/43 23/44/44
f 23/44/45 24/43/46 26/45/47 25/46/48
f 25/46/49 26/45/50 28/47/51 27/48/52
f 27/48/53 28/47/54 22/49/55 21/50/56
s 5
f 29/51/57 30/52/58 32/53/59 31/54/60
f 31/54/60 32/53/59 34/55/61 33/56/62
f 33/56/62 34/55/61 36/57/63 35/58/64
f 35/58/64 36/57/63 38/59/65 37/60/66
s 6
f 39/61/67 40/62/68 42/63/69 41/64/70
f 41/64/70 42/63/69 44/65/71 43/66/72
f 43/66/72 44/65/71 46/67/73 45/68/74
f 45/68/74 46/67/73 48/69/75 47/70/76
s 7
f 30/71/77 48/72/78 46/73/79 32/74/80
f 32/74/80 46/73/79 44/75/81 34/76/82
f 34/76/82 44/75/81 42/77/83 36/78/84
f 36/78/84 42/77/83 40/79/85 38/80/86
s 8
f 47/81/87 29/82/88 31/83/89 45/84/90
f 45/84/90 31/83/89 33/85/91 43/86/92
f 43/86/92 33/85/91 35/87/93 41/88/94
f 41/88/94 35/87/93 37/89/95 39/90/96
