# This file uses centimeters as units for non-parametric coordinates.

mtllib heart000.mtl
g default
v 1.169272 1.246589 1.212524
v 5.120596 3.758751 1.909784
v 6.654895 5.869559 2.222170
v 7.599354 8.514201 2.470483
v 7.600656 11.141059 2.649321
v 4.350666 13.786272 2.705609
v 1.980743 13.431214 2.482072
v 6.527062 13.110389 2.726153
v 1.323774 3.269660 2.666237
v 4.445151 4.450232 2.793697
v 5.076991 6.050824 3.101933
v 5.623604 8.227685 3.371998
v 5.747921 10.411552 3.471010
v 3.839659 12.054572 3.510294
v 5.524982 12.038845 3.398051
v 1.783744 11.787218 3.436945
v 1.512421 5.553670 3.621990
v 1.643850 7.625293 4.083746
v 1.728858 9.678819 4.006348
v 3.200417 2.318075 1.596046
v 3.036590 3.871617 2.757168
v 3.643553 9.976277 3.877767
v 3.222169 5.859126 3.498038
v 3.480279 7.905401 3.886892
v 0.495211 12.835614 2.064820
v 0.000000 0.898862 1.115506
v -1.169272 1.246589 1.332980
v -5.120596 3.758751 2.059537
v -6.654895 5.869559 2.270346
v -7.599354 8.514201 2.475960
v -7.600656 11.141059 2.649321
v -4.350666 13.786272 2.705609
v -1.980743 13.431214 2.482072
v 0.000000 12.872775 1.598894
v -6.527062 13.110389 2.726153
v -1.323774 3.269660 2.666237
v -4.445151 4.450232 2.793697
v -5.076991 6.050824 3.101933
v -5.623604 8.227685 3.371998
v -5.747921 10.411552 3.471010
v 0.000000 3.033037 2.617558
v -3.839659 12.054572 3.510294
v -5.524982 12.038845 3.398051
v -1.783744 11.787218 3.436945
v 0.000000 11.677842 3.198285
v -1.512421 5.553670 3.621990
v -1.643850 7.625293 4.083746
v -1.728858 9.678819 4.006348
v 0.000000 5.416172 3.632020
v 0.000000 7.505889 4.108108
v 0.000000 9.561288 3.979056
v -3.200417 2.318075 1.719337
v -3.036590 3.871617 2.757168
v -3.643553 9.976277 3.877767
v -3.222169 5.859126 3.498038
v -3.480279 7.905401 3.886892
v -0.495211 12.835614 2.064820
v 7.399016 5.657008 1.211543
v 0.005232 -0.064539 0.541859
v 7.067198 13.806069 1.531293
v 4.475637 14.675400 1.505026
v 0.000000 13.078860 0.862414
v 5.503853 3.312138 1.029184
v 8.493128 11.538075 1.469628
v 1.781354 14.159022 1.350468
v 0.888756 0.264430 0.582577
v 8.541373 8.592788 1.354832
v 3.290066 1.598291 0.839373
v 0.341099 13.270336 1.060953
v -7.400066 5.657587 1.238018
v -7.067198 13.806069 1.531293
v -4.475637 14.675400 1.505026
v -5.504972 3.311773 1.139389
v -8.493134 11.538101 1.469591
v -1.781354 14.159022 1.350468
v -0.884090 0.261361 0.672835
v -8.541606 8.593052 1.355147
v -3.291398 1.596454 0.915866
v -0.341099 13.270336 1.060953
v 1.169272 1.246589 -1.212524
v 5.120596 3.758751 -1.909784
v 6.654895 5.869559 -2.222170
v 7.599354 8.514201 -2.470483
v 7.600656 11.141059 -2.649321
v 4.350666 13.786272 -2.705609
v 1.980743 13.431214 -2.482072
v 6.527062 13.110389 -2.726153
v 1.323774 3.269660 -2.666237
v 4.445151 4.450232 -2.793697
v 5.076991 6.050824 -3.101933
v 5.623604 8.227685 -3.371998
v 5.747921 10.411552 -3.471010
v 3.839659 12.054572 -3.510294
v 5.524982 12.038845 -3.398051
v 1.783744 11.787218 -3.436945
v 1.512421 5.553670 -3.621990
v 1.643850 7.625293 -4.083746
v 1.728858 9.678819 -4.006348
v 3.200417 2.318075 -1.596046
v 3.036590 3.871617 -2.757168
v 3.643553 9.976277 -3.877767
v 3.222169 5.859126 -3.498038
v 3.480279 7.905401 -3.886892
v 0.495211 12.835614 -2.064820
v 0.000000 0.898862 -1.115506
v -1.169272 1.246589 -1.332980
v -5.120596 3.758751 -2.059537
v -6.654895 5.869559 -2.270346
v -7.599354 8.514201 -2.475960
v -7.600656 11.141059 -2.649321
v -4.350666 13.786272 -2.705609
v -1.980743 13.431214 -2.482072
v 0.000000 12.872775 -1.598894
v -6.527062 13.110389 -2.726153
v -1.323774 3.269660 -2.666237
v -4.445151 4.450232 -2.793697
v -5.076991 6.050824 -3.101933
v -5.623604 8.227685 -3.371998
v -5.747921 10.411552 -3.471010
v 0.000000 3.033037 -2.617558
v -3.839659 12.054572 -3.510294
v -5.524982 12.038845 -3.398051
v -1.783744 11.787218 -3.436945
v 0.000000 11.677842 -3.198285
v -1.512421 5.553670 -3.621990
v -1.643850 7.625293 -4.083746
v -1.728858 9.678819 -4.006348
v 0.000000 5.416172 -3.632020
v 0.000000 7.505889 -4.108108
v 0.000000 9.561288 -3.979056
v -3.200417 2.318075 -1.719337
v -3.036590 3.871617 -2.757168
v -3.643553 9.976277 -3.877767
v -3.222169 5.859126 -3.498038
v -3.480279 7.905401 -3.886892
v -0.495211 12.835614 -2.064820
v 0.162123 -0.259462 0.000000
v 7.637085 5.608449 0.000000
v 8.893484 8.683311 0.000000
v 1.530557 14.313229 0.000000
v 8.830945 11.752418 0.000000
v 5.517713 3.203297 0.000000
v 4.467355 15.042024 0.000000
v 7.276152 14.146697 0.000000
v 3.289764 1.463579 0.000000
v 0.176039 13.138554 0.000000
v 0.000000 -0.337156 0.000000
v -0.162123 -0.259462 0.000000
v -7.637085 5.608449 0.000000
v -8.893484 8.683311 0.000000
v -1.530557 14.313229 0.000000
v -8.830945 11.752418 0.000000
v -5.517713 3.203297 0.000000
v 0.000000 12.870474 0.000000
v -4.467355 15.042024 0.000000
v -7.276152 14.146697 0.000000
v -3.289764 1.463579 0.000000
v -0.176039 13.138554 0.000000
v 7.399016 5.657008 -1.211543
v 0.005232 -0.064539 -0.541859
v 7.067198 13.806069 -1.531293
v 4.475637 14.675400 -1.505026
v 0.000000 13.078860 -0.862414
v 5.503853 3.312138 -1.029184
v 8.493128 11.538075 -1.469628
v 1.781354 14.159022 -1.350468
v 0.888756 0.264430 -0.582577
v 8.541373 8.592788 -1.354832
v 3.290066 1.598291 -0.839373
v 0.341099 13.270336 -1.060953
v -7.400066 5.657587 -1.238018
v -7.067198 13.806069 -1.531293
v -4.475637 14.675400 -1.505026
v -5.504972 3.311773 -1.139389
v -8.493134 11.538101 -1.469591
v -1.781354 14.159022 -1.350468
v -0.884090 0.261361 -0.672835
v -8.541606 8.593052 -1.355147
v -3.291398 1.596454 -0.915866
v -0.341099 13.270336 -1.060953
vt 0.525000 0.246800
vt 0.477200 0.181100
vt 0.456100 0.202600
vt 0.475800 0.252500
vt 0.554400 0.329200
vt 0.492800 0.320200
vt 0.417400 0.136200
vt 0.354200 0.102900
vt 0.359000 0.165900
vt 0.412300 0.184600
vt 0.554400 0.411000
vt 0.496700 0.388200
vt 0.317700 0.158500
vt 0.317700 0.092100
vt 0.453200 0.493300
vt 0.521000 0.472300
vt 0.489800 0.438900
vt 0.437300 0.439400
vt 0.582200 0.423300
vt 0.537800 0.493900
vt 0.544300 0.504500
vt 0.592700 0.430000
vt 0.373300 0.431100
vt 0.379400 0.482300
vt 0.336800 0.464100
vt 0.317700 0.427900
vt 0.431200 0.374700
vt 0.371600 0.365400
vt 0.486700 0.170600
vt 0.548100 0.240200
vt 0.555500 0.238700
vt 0.489500 0.163800
vt 0.457100 0.521000
vt 0.456800 0.532400
vt 0.334400 0.479800
vt 0.317600 0.476400
vt 0.317700 0.479400
vt 0.323200 0.481000
vt 0.418700 0.119000
vt 0.420200 0.109600
vt 0.583700 0.331600
vt 0.594700 0.334400
vt 0.318000 0.070100
vt 0.350000 0.080400
vt 0.322800 0.056000
vt 0.317700 0.053600
vt 0.317700 0.361800
vt 0.317700 0.232700
vt 0.364800 0.237000
vt 0.317700 0.297800
vt 0.368900 0.301500
vt 0.426100 0.310200
vt 0.418100 0.246500
vt 0.373200 0.504900
vt 0.365400 0.509700
vt 0.110500 0.246800
vt 0.159700 0.252500
vt 0.179300 0.202600
vt 0.158300 0.181100
vt 0.081100 0.329200
vt 0.142700 0.320200
vt 0.218100 0.136200
vt 0.223200 0.184600
vt 0.276500 0.165900
vt 0.281300 0.102900
vt 0.081100 0.411000
vt 0.138800 0.388200
vt 0.182300 0.493300
vt 0.198200 0.439400
vt 0.145700 0.438900
vt 0.114500 0.472300
vt 0.053300 0.423300
vt 0.042800 0.430000
vt 0.091200 0.504500
vt 0.097700 0.493900
vt 0.256100 0.482300
vt 0.262200 0.431100
vt 0.298400 0.464200
vt 0.263900 0.365400
vt 0.204300 0.374700
vt 0.149700 0.172200
vt 0.145900 0.163800
vt 0.080000 0.238700
vt 0.087300 0.240200
vt 0.178700 0.532400
vt 0.178400 0.521000
vt 0.300500 0.480000
vt 0.312300 0.481000
vt 0.215800 0.116400
vt 0.215300 0.109600
vt 0.051800 0.331600
vt 0.040800 0.334400
vt 0.312700 0.056000
vt 0.287200 0.077100
vt 0.270700 0.237000
vt 0.266600 0.301500
vt 0.209400 0.310200
vt 0.217400 0.246500
vt 0.270100 0.509700
vt 0.262300 0.504900
vt 0.317600 0.467900
vt 0.889100 0.662700
vt 0.840000 0.668300
vt 0.820300 0.618500
vt 0.841400 0.597000
vt 0.918600 0.745000
vt 0.857000 0.736100
vt 0.781600 0.552100
vt 0.776500 0.600500
vt 0.723200 0.581700
vt 0.718300 0.518800
vt 0.918600 0.826800
vt 0.860900 0.804100
vt 0.681900 0.574400
vt 0.681900 0.507900
vt 0.817400 0.909200
vt 0.801500 0.855300
vt 0.854000 0.854800
vt 0.885200 0.888100
vt 0.946400 0.839200
vt 0.956900 0.845900
vt 0.908500 0.920400
vt 0.902000 0.909800
vt 0.743600 0.898100
vt 0.737500 0.846900
vt 0.700900 0.879900
vt 0.681900 0.843700
vt 0.735800 0.781300
vt 0.795400 0.790600
vt 0.850900 0.586400
vt 0.853700 0.579700
vt 0.919700 0.654600
vt 0.912300 0.656100
vt 0.821000 0.948300
vt 0.821300 0.936900
vt 0.698600 0.895700
vt 0.687400 0.896900
vt 0.681900 0.895300
vt 0.681800 0.892300
vt 0.782900 0.534900
vt 0.784400 0.525500
vt 0.947900 0.747500
vt 0.958800 0.750300
vt 0.682200 0.486000
vt 0.681900 0.469400
vt 0.687000 0.471900
vt 0.714200 0.496300
vt 0.681900 0.777600
vt 0.729000 0.652900
vt 0.681900 0.648600
vt 0.733100 0.717400
vt 0.681900 0.713600
vt 0.790300 0.726100
vt 0.782300 0.662400
vt 0.729600 0.925600
vt 0.737400 0.920800
vt 0.474700 0.662700
vt 0.522500 0.597000
vt 0.543500 0.618500
vt 0.523900 0.668300
vt 0.445300 0.745000
vt 0.506800 0.736100
vt 0.582300 0.552100
vt 0.645500 0.518800
vt 0.640700 0.581700
vt 0.587400 0.600500
vt 0.445300 0.826800
vt 0.503000 0.804100
vt 0.546500 0.909200
vt 0.478700 0.888100
vt 0.509900 0.854800
vt 0.562400 0.855300
vt 0.417500 0.839200
vt 0.461900 0.909800
vt 0.455400 0.920400
vt 0.407000 0.845900
vt 0.626400 0.846900
vt 0.620300 0.898100
vt 0.662600 0.880000
vt 0.568500 0.790600
vt 0.628100 0.781300
vt 0.513900 0.588000
vt 0.451500 0.656100
vt 0.444200 0.654600
vt 0.510100 0.579700
vt 0.542600 0.936900
vt 0.542800 0.948300
vt 0.664700 0.895900
vt 0.676500 0.896900
vt 0.580000 0.532300
vt 0.579500 0.525500
vt 0.416000 0.747500
vt 0.405000 0.750300
vt 0.651400 0.493000
vt 0.676900 0.471900
vt 0.634900 0.652900
vt 0.630800 0.717400
vt 0.573600 0.726100
vt 0.581600 0.662400
vt 0.626500 0.920800
vt 0.634300 0.925600
vt 0.681800 0.883800
vn -0.577654 0.359584 -0.732814
vn -0.469180 0.557227 -0.685105
vn -0.309211 0.431308 -0.847562
vn -0.347108 0.271842 -0.897562
vn -0.609330 0.158802 -0.776852
vn -0.344146 0.131838 -0.929614
vn -0.266897 0.619819 -0.737964
vn -0.156127 0.594878 -0.788508
vn -0.103883 0.492174 -0.864276
vn -0.175208 0.477241 -0.861129
vn -0.616569 -0.104259 -0.780367
vn -0.307088 -0.019037 -0.951491
vn -0.011954 0.488388 -0.872545
vn -0.030584 0.561015 -0.827241
vn -0.012814 -0.664954 -0.746774
vn -0.413989 -0.494403 -0.764316
vn -0.213331 -0.237491 -0.947675
vn -0.000908 -0.323520 -0.946221
vn -0.874280 -0.235365 -0.424545
vn -0.561555 -0.715658 -0.415318
vn -0.602944 -0.797784 0.000000
vn -0.955608 -0.294642 0.000000
vn 0.118535 -0.392840 -0.911936
vn 0.230127 -0.660971 -0.714254
vn 0.312649 -0.705437 -0.636090
vn 0.000000 -0.453053 -0.891484
vn -0.105163 -0.078389 -0.991361
vn 0.006111 -0.150883 -0.988533
vn -0.644676 0.678854 -0.351497
vn -0.797065 0.471018 -0.377927
vn -0.866020 0.500009 0.000000
vn -0.697528 0.716557 0.000000
vn -0.050758 -0.919792 -0.389110
vn -0.050133 -0.998743 0.000000
vn 0.552244 -0.788651 -0.270289
vn 0.000000 -0.991793 -0.127851
vn 0.000000 -1.000000 0.000000
vn 0.608972 -0.793192 0.000000
vn -0.460871 0.776659 -0.429415
vn -0.548567 0.836107 0.000000
vn -0.891669 0.176877 -0.416702
vn -0.985785 0.168014 0.000000
vn -0.035775 0.669461 -0.741986
vn -0.368810 0.802900 -0.468328
vn -0.429948 0.902854 0.000000
vn -0.014524 0.999894 0.000000
vn 0.000000 -0.181804 -0.983335
vn -0.000000 0.313897 -0.949457
vn -0.076173 0.304633 -0.949419
vn -0.000000 0.090035 -0.995938
vn -0.060872 0.092957 -0.993808
vn -0.172171 0.103785 -0.979584
vn -0.162834 0.267160 -0.949795
vn 0.318338 -0.881494 -0.348754
vn 0.368207 -0.929744 0.000000
vn 0.578413 0.348782 -0.737421
vn 0.334738 0.259170 -0.905970
vn 0.284390 0.402800 -0.869985
vn 0.465311 0.542856 -0.699137
vn 0.609849 0.155084 -0.777196
vn 0.340280 0.128161 -0.931549
vn 0.259980 0.608846 -0.749478
vn 0.159137 0.453113 -0.877134
vn 0.088181 0.474820 -0.875654
vn 0.135074 0.589299 -0.796544
vn 0.616654 -0.104743 -0.780236
vn 0.306546 -0.019445 -0.951657
vn 0.012814 -0.664954 -0.746774
vn 0.000908 -0.323520 -0.946221
vn 0.213331 -0.237491 -0.947675
vn 0.413990 -0.494403 -0.764315
vn 0.874340 -0.235457 -0.424370
vn 0.955603 -0.294657 -0.000000
vn 0.602941 -0.797786 -0.000000
vn 0.561554 -0.715659 -0.415319
vn -0.230127 -0.660971 -0.714254
vn -0.118534 -0.392840 -0.911936
vn -0.312649 -0.705437 -0.636090
vn -0.006111 -0.150883 -0.988533
vn 0.105163 -0.078389 -0.991361
vn 0.650585 0.680528 -0.337078
vn 0.697242 0.716835 0.000000
vn 0.864656 0.502365 -0.000000
vn 0.802251 0.469825 -0.368319
vn 0.050133 -0.998743 -0.000000
vn 0.050758 -0.919792 -0.389110
vn -0.552244 -0.788651 -0.270289
vn -0.608972 -0.793192 -0.000000
vn 0.470053 0.787133 -0.399339
vn 0.548514 0.836141 -0.000000
vn 0.892973 0.175966 -0.414289
vn 0.985695 0.168540 -0.000000
vn 0.425916 0.904763 -0.000000
vn 0.358996 0.818906 -0.447788
vn 0.076173 0.304633 -0.949419
vn 0.060872 0.092957 -0.993808
vn 0.172171 0.103785 -0.979584
vn 0.162834 0.267160 -0.949795
vn -0.368207 -0.929744 -0.000000
vn -0.318338 -0.881494 -0.348754
vn 0.000000 -0.870854 -0.491541
vn -0.577654 0.359583 0.732814
vn -0.347108 0.271842 0.897562
vn -0.309211 0.431308 0.847562
vn -0.469180 0.557227 0.685104
vn -0.609330 0.158802 0.776852
vn -0.344146 0.131838 0.929614
vn -0.266897 0.619819 0.737964
vn -0.175208 0.477241 0.861129
vn -0.103883 0.492174 0.864276
vn -0.156127 0.594878 0.788508
vn -0.616569 -0.104259 0.780367
vn -0.307088 -0.019037 0.951491
vn -0.011954 0.488388 0.872545
vn -0.030584 0.561015 0.827241
vn -0.012814 -0.664954 0.746774
vn -0.000908 -0.323520 0.946221
vn -0.213331 -0.237491 0.947675
vn -0.413988 -0.494403 0.764316
vn -0.874280 -0.235365 0.424545
vn -0.561555 -0.715658 0.415318
vn 0.230127 -0.660971 0.714254
vn 0.118534 -0.392840 0.911936
vn 0.312649 -0.705437 0.636090
vn -0.000000 -0.453053 0.891484
vn 0.006111 -0.150883 0.988533
vn -0.105163 -0.078389 0.991361
vn -0.644676 0.678854 0.351497
vn -0.797065 0.471018 0.377927
vn -0.050758 -0.919792 0.389110
vn 0.552244 -0.788651 0.270289
vn -0.000000 -0.991793 0.127851
vn -0.460871 0.776659 0.429415
vn -0.891669 0.176877 0.416702
vn -0.035775 0.669461 0.741986
vn -0.368810 0.802900 0.468328
vn -0.000000 -0.181804 0.983335
vn -0.076173 0.304633 0.949419
vn 0.000000 0.313897 0.949457
vn -0.060872 0.092957 0.993808
vn 0.000000 0.090035 0.995938
vn -0.172171 0.103785 0.979584
vn -0.162834 0.267160 0.949795
vn 0.318338 -0.881494 0.348754
vn 0.578413 0.348782 0.737421
vn 0.465311 0.542856 0.699137
vn 0.284390 0.402800 0.869985
vn 0.334738 0.259170 0.905970
vn 0.609848 0.155084 0.777196
vn 0.340280 0.128161 0.931549
vn 0.259980 0.608846 0.749478
vn 0.135074 0.589299 0.796543
vn 0.088181 0.474820 0.875654
vn 0.159137 0.453113 0.877134
vn 0.616654 -0.104743 0.780235
vn 0.306546 -0.019445 0.951657
vn 0.012814 -0.664954 0.746774
vn 0.413990 -0.494403 0.764315
vn 0.213331 -0.237491 0.947675
vn 0.000908 -0.323520 0.946221
vn 0.874340 -0.235456 0.424370
vn 0.561554 -0.715659 0.415319
vn -0.118535 -0.392840 0.911936
vn -0.230127 -0.660971 0.714254
vn -0.312649 -0.705437 0.636090
vn 0.105163 -0.078389 0.991361
vn -0.006111 -0.150883 0.988533
vn 0.650585 0.680528 0.337078
vn 0.802251 0.469825 0.368319
vn 0.050758 -0.919792 0.389110
vn -0.552244 -0.788651 0.270289
vn 0.470053 0.787133 0.399339
vn 0.892973 0.175966 0.414289
vn 0.358996 0.818906 0.447788
vn 0.076173 0.304633 0.949419
vn 0.060872 0.092957 0.993808
vn 0.172171 0.103785 0.979584
vn 0.162834 0.267160 0.949795
vn -0.318338 -0.881494 0.348754
vn -0.000000 -0.870854 0.491541
s 1
g initialShadingGroup Mesh
f 3/1/1 2/2/2 10/3/3 11/4/4
f 4/5/5 3/1/1 11/4/4 12/6/6
f 20/7/7 1/8/8 9/9/9 21/10/10
f 5/11/11 4/5/5 12/6/6 13/12/12
f 41/13/13 9/9/9 1/8/8 26/14/14
f 6/15/15 8/16/16 15/17/17 14/18/18
f 64/19/19 60/20/20 144/21/21 141/22/22
f 14/18/18 16/23/23 7/24/24 6/15/15
f 25/25/25 7/24/24 16/23/23 45/26/26
f 16/23/23 14/18/18 22/27/27 19/28/28
f 8/16/16 5/11/11 13/12/12 15/17/17
f 63/29/29 58/30/30 138/31/31 142/32/32
f 60/20/20 61/33/33 143/34/34 144/21/21
f 69/35/35 62/36/36 154/37/37 146/38/38
f 68/39/39 63/29/29 142/32/32 145/40/40
f 67/41/41 64/19/19 141/22/22 139/42/42
f 59/43/43 66/44/44 137/45/45 147/46/46
f 58/30/30 67/41/41 139/42/42 138/31/31
f 51/47/47 45/26/26 16/23/23 19/28/28
f 41/13/13 49/48/48 17/49/49 9/9/9
f 49/48/48 50/50/50 18/51/51 17/49/49
f 50/50/50 51/47/47 19/28/28 18/51/51
f 22/27/27 24/52/52 18/51/51 19/28/28
f 24/52/52 23/53/53 17/49/49 18/51/51
f 21/10/10 23/53/53 11/4/4 10/3/3
f 9/9/9 17/49/49 23/53/53 21/10/10
f 12/6/6 11/4/4 23/53/53 24/52/52
f 13/12/12 12/6/6 24/52/52 22/27/27
f 66/44/44 68/39/39 145/40/40 137/45/45
f 2/2/2 20/7/7 21/10/10 10/3/3
f 14/18/18 15/17/17 13/12/12 22/27/27
f 61/33/33 65/54/54 140/55/55 143/34/34
f 65/54/54 69/35/35 146/38/38 140/55/55
f 29/56/56 38/57/57 37/58/58 28/59/59
f 30/60/60 39/61/61 38/57/57 29/56/56
f 52/62/62 53/63/63 36/64/64 27/65/65
f 31/66/66 40/67/67 39/61/61 30/60/60
f 41/13/13 26/14/14 27/65/65 36/64/64
f 32/68/68 42/69/69 43/70/70 35/71/71
f 74/72/72 152/73/73 156/74/74 71/75/75
f 42/69/69 32/68/68 33/76/76 44/77/77
f 57/78/78 45/26/26 44/77/77 33/76/76
f 44/77/77 48/79/79 54/80/80 42/69/69
f 35/71/71 43/70/70 40/67/67 31/66/66
f 73/81/81 153/82/82 149/83/83 70/84/84
f 71/75/75 156/74/74 155/85/85 72/86/86
f 79/87/87 158/88/88 154/37/37 62/36/36
f 78/89/89 157/90/90 153/82/82 73/81/81
f 77/91/91 150/92/92 152/73/73 74/72/72
f 59/43/43 147/46/46 148/93/93 76/94/94
f 70/84/84 149/83/83 150/92/92 77/91/91
f 51/47/47 48/79/79 44/77/77 45/26/26
f 41/13/13 36/64/64 46/95/95 49/48/48
f 49/48/48 46/95/95 47/96/96 50/50/50
f 50/50/50 47/96/96 48/79/79 51/47/47
f 54/80/80 48/79/79 47/96/96 56/97/97
f 56/97/97 47/96/96 46/95/95 55/98/98
f 53/63/63 37/58/58 38/57/57 55/98/98
f 36/64/64 53/63/63 55/98/98 46/95/95
f 39/61/61 56/97/97 55/98/98 38/57/57
f 40/67/67 54/80/80 56/97/97 39/61/61
f 76/94/94 148/93/93 157/90/90 78/89/89
f 28/59/59 37/58/58 53/63/63 52/62/62
f 42/69/69 54/80/80 40/67/67 43/70/70
f 72/86/86 155/85/85 151/99/99 75/100/100
f 75/100/100 151/99/99 158/88/88 79/87/87
f 45/26/26 57/78/78 34/101/101 25/25/25
f 33/76/76 75/100/100 79/87/87 57/78/78
f 32/68/68 72/86/86 75/100/100 33/76/76
f 27/65/65 76/94/94 78/89/89 52/62/62
f 29/56/56 70/84/84 77/91/91 30/60/60
f 26/14/14 59/43/43 76/94/94 27/65/65
f 30/60/60 77/91/91 74/72/72 31/66/66
f 52/62/62 78/89/89 73/81/81 28/59/59
f 57/78/78 79/87/87 62/36/36 34/101/101
f 35/71/71 71/75/75 72/86/86 32/68/68
f 28/59/59 73/81/81 70/84/84 29/56/56
f 31/66/66 74/72/72 71/75/75 35/71/71
f 7/24/24 25/25/25 69/35/35 65/54/54
f 6/15/15 7/24/24 65/54/54 61/33/33
f 1/8/8 20/7/7 68/39/39 66/44/44
f 3/1/1 4/5/5 67/41/41 58/30/30
f 26/14/14 1/8/8 66/44/44 59/43/43
f 4/5/5 5/11/11 64/19/19 67/41/41
f 20/7/7 2/2/2 63/29/29 68/39/39
f 25/25/25 34/101/101 62/36/36 69/35/35
f 8/16/16 6/15/15 61/33/33 60/20/20
f 2/2/2 3/1/1 58/30/30 63/29/29
f 5/11/11 8/16/16 60/20/20 64/19/19
f 82/102/102 90/103/103 89/104/104 81/105/105
f 83/106/106 91/107/107 90/103/103 82/102/102
f 99/108/108 100/109/109 88/110/110 80/111/111
f 84/112/112 92/113/113 91/107/107 83/106/106
f 120/114/114 105/115/115 80/111/111 88/110/110
f 85/116/116 93/117/117 94/118/118 87/119/119
f 165/120/120 141/121/22 144/122/21 161/123/121
f 93/117/117 85/116/116 86/124/122 95/125/123
f 104/126/124 124/127/125 95/125/123 86/124/122
f 95/125/123 98/128/126 101/129/127 93/117/117
f 87/119/119 94/118/118 92/113/113 84/112/112
f 164/130/128 142/131/32 138/132/31 159/133/129
f 161/123/121 144/122/21 143/134/34 162/135/130
f 170/136/131 146/137/38 154/138/37 163/139/132
f 169/140/133 145/141/40 142/131/32 164/130/128
f 168/142/134 139/143/42 141/121/22 165/120/120
f 160/144/135 147/145/46 137/146/45 167/147/136
f 159/133/129 138/132/31 139/143/42 168/142/134
f 130/148/137 98/128/126 95/125/123 124/127/125
f 120/114/114 88/110/110 96/149/138 128/150/139
f 128/150/139 96/149/138 97/151/140 129/152/141
f 129/152/141 97/151/140 98/128/126 130/148/137
f 101/129/127 98/128/126 97/151/140 103/153/142
f 103/153/142 97/151/140 96/149/138 102/154/143
f 100/109/109 89/104/104 90/103/103 102/154/143
f 88/110/110 100/109/109 102/154/143 96/149/138
f 91/107/107 103/153/142 102/154/143 90/103/103
f 92/113/113 101/129/127 103/153/142 91/107/107
f 167/147/136 137/146/45 145/141/40 169/140/133
f 81/105/105 89/104/104 100/109/109 99/108/108
f 93/117/117 101/129/127 92/113/113 94/118/118
f 162/135/130 143/134/34 140/155/55 166/156/144
f 166/156/144 140/155/55 146/137/38 170/136/131
f 108/157/145 107/158/146 116/159/147 117/160/148
f 109/161/149 108/157/145 117/160/148 118/162/150
f 131/163/151 106/164/152 115/165/153 132/166/154
f 110/167/155 109/161/149 118/162/150 119/168/156
f 120/114/114 115/165/153 106/164/152 105/115/115
f 111/169/157 114/170/158 122/171/159 121/172/160
f 175/173/161 172/174/162 156/175/74 152/176/73
f 121/172/160 123/177/163 112/178/164 111/169/157
f 136/179/165 112/178/164 123/177/163 124/127/125
f 123/177/163 121/172/160 133/180/166 127/181/167
f 114/170/158 110/167/155 119/168/156 122/171/159
f 174/182/168 171/183/169 149/184/83 153/185/82
f 172/174/162 173/186/170 155/187/85 156/175/74
f 180/188/171 163/139/132 154/138/37 158/189/88
f 179/190/172 174/182/168 153/185/82 157/191/90
f 178/192/173 175/173/161 152/176/73 150/193/92
f 160/144/135 177/194/174 148/195/93 147/145/46
f 171/183/169 178/192/173 150/193/92 149/184/83
f 130/148/137 124/127/125 123/177/163 127/181/167
f 120/114/114 128/150/139 125/196/175 115/165/153
f 128/150/139 129/152/141 126/197/176 125/196/175
f 129/152/141 130/148/137 127/181/167 126/197/176
f 133/180/166 135/198/177 126/197/176 127/181/167
f 135/198/177 134/199/178 125/196/175 126/197/176
f 132/166/154 134/199/178 117/160/148 116/159/147
f 115/165/153 125/196/175 134/199/178 132/166/154
f 118/162/150 117/160/148 134/199/178 135/198/177
f 119/168/156 118/162/150 135/198/177 133/180/166
f 177/194/174 179/190/172 157/191/90 148/195/93
f 107/158/146 131/163/151 132/166/154 116/159/147
f 121/172/160 122/171/159 119/168/156 133/180/166
f 173/186/170 176/200/179 151/201/99 155/187/85
f 176/200/179 180/188/171 158/189/88 151/201/99
f 124/127/125 104/126/124 113/202/180 136/179/165
f 112/178/164 136/179/165 180/188/171 176/200/179
f 111/169/157 112/178/164 176/200/179 173/186/170
f 106/164/152 131/163/151 179/190/172 177/194/174
f 108/157/145 109/161/149 178/192/173 171/183/169
f 105/115/115 106/164/152 177/194/174 160/144/135
f 109/161/149 110/167/155 175/173/161 178/192/173
f 131/163/151 107/158/146 174/182/168 179/190/172
f 136/179/165 113/202/180 163/139/132 180/188/171
f 114/170/158 111/169/157 173/186/170 172/174/162
f 107/158/146 108/157/145 171/183/169 174/182/168
f 110/167/155 114/170/158 172/174/162 175/173/161
f 86/124/122 166/156/144 170/136/131 104/126/124
f 85/116/116 162/135/130 166/156/144 86/124/122
f 80/111/111 167/147/136 169/140/133 99/108/108
f 82/102/102 159/133/129 168/142/134 83/106/106
f 105/115/115 160/144/135 167/147/136 80/111/111
f 83/106/106 168/142/134 165/120/120 84/112/112
f 99/108/108 169/140/133 164/130/128 81/105/105
f 104/126/124 170/136/131 163/139/132 113/202/180
f 87/119/119 161/123/121 162/135/130 85/116/116
f 81/105/105 164/130/128 159/133/129 82/102/102
f 84/112/112 165/120/120 161/123/121 87/119/119
