# This file uses centimeters as units for non-parametric coordinates.

mtllib axe.mtl
g default
v -0.257951 4.310118 0.082176
v 0.257951 4.310118 0.082176
v -0.257951 5.324862 0.082176
v 0.257951 5.324862 0.082176
v -0.257951 5.478987 -1.022407
v 0.257951 5.478987 -1.022407
v -0.257951 4.155993 -1.022407
v 0.257951 4.155993 -1.022407
v 0.000000 4.557995 0.886382
v 0.000000 4.053912 -1.022407
v 0.000000 5.581067 -1.022407
v 0.000000 5.076985 0.886382
v 0.000000 4.231821 0.082174
v 0.000000 5.403158 0.082174
v 0.000000 5.976549 -3.446277
v 0.000000 3.671872 -3.446277
v 0.257951 4.067569 -2.074275
v 0.257951 5.567411 -2.074275
v 0.000000 5.683136 -2.074273
v 0.000000 3.951843 -2.074273
v -0.257951 4.067569 -2.074275
v -0.257951 5.567411 -2.074275
vt 0.222135 0.422450
vt 0.425522 0.422450
vt 0.222135 0.625837
vt 0.425522 0.625837
vt 0.223647 0.819919
vt 0.425499 0.816652
vt 0.222027 0.232694
vt 0.425491 0.229293
vt 0.222135 0.422630
vt 0.425522 0.422630
vt 0.628527 0.422496
vt 0.628557 0.625867
vt 0.019094 0.422495
vt 0.019062 0.625866
vt 0.323829 0.422450
vt 0.323829 0.422630
vt 0.323824 0.207842
vt 0.323894 0.840494
vt 0.323829 0.625837
vt 0.323829 0.315737
vt 0.323829 0.733791
vt 0.323829 0.625837
vt 0.323829 0.422450
vt 0.425522 0.422450
vt 0.425522 0.625837
vt 0.323828 0.840538
vt 0.323829 0.733791
vt 0.425514 0.816282
vt 0.323829 0.422630
vt 0.323829 0.315737
vt 0.425522 0.422630
vt 0.628899 0.422453
vt 0.628901 0.625833
vt 0.018759 0.422453
vt 0.222135 0.422450
vt 0.222135 0.625837
vt 0.018757 0.625833
vt 0.222135 0.422630
vt 0.223390 0.819733
vt 0.222144 0.232185
vt 0.323830 0.207929
vt 0.425514 0.229357
vn -0.000000 0.000000 1.000000
vn -0.000000 0.000000 1.000000
vn 0.952216 0.000000 0.305425
vn 0.952216 0.000000 0.305425
vn 0.000000 0.988893 0.148629
vn 0.000000 0.977960 0.208791
vn 0.314124 0.928540 0.197839
vn 0.326770 0.934607 0.140470
vn 0.000000 -0.926682 0.375847
vn 0.000000 -0.977960 0.208791
vn 0.314124 -0.928540 0.197839
vn 1.000000 0.000000 0.000000
vn 1.000000 0.000000 0.000000
vn 1.000000 0.000000 0.000000
vn 1.000000 0.000000 0.000000
vn -1.000000 0.000000 0.000000
vn -1.000000 0.000000 0.000000
vn -1.000000 0.000000 0.000000
vn -1.000000 0.000000 0.000000
vn -0.314124 -0.928540 0.197839
vn -0.314124 0.928540 0.197839
vn -0.326770 0.934607 0.140470
vn -0.952216 0.000000 0.305425
vn -0.952216 0.000000 0.305425
vn -0.326771 -0.934606 0.140470
vn 0.000000 -0.988893 0.148629
vn 0.326771 -0.934606 0.140470
vn 0.000000 0.926682 0.375846
vn -0.000000 0.000000 -1.000000
vn 0.982781 0.000000 -0.184773
vn 0.982781 0.000000 -0.184773
vn -0.000000 0.000000 -1.000000
vn 0.000000 0.995925 0.090181
vn 0.387597 0.918073 0.083131
vn 0.393103 0.911473 0.121189
vn 0.000000 0.990129 0.140161
vn -0.000000 -0.979808 0.199940
vn 0.393256 -0.911797 0.118218
vn -0.000000 -0.990687 0.136162
vn 1.000000 0.000000 0.000000
vn 1.000000 0.000000 0.000000
vn 1.000000 0.000000 0.000000
vn 1.000000 0.000000 0.000000
vn -1.000000 0.000000 0.000000
vn -1.000000 0.000000 0.000000
vn -1.000000 0.000000 0.000000
vn -1.000000 0.000000 0.000000
vn -0.393256 -0.911797 0.118218
vn -0.393103 0.911473 0.121189
vn -0.387597 0.918073 0.083131
vn -0.982781 0.000000 -0.184773
vn -0.982781 0.000000 -0.184773
vn -0.387598 -0.918073 0.083131
vn -0.000000 -0.995925 0.090181
vn 0.387598 -0.918073 0.083131
vn 0.000000 0.977888 0.209128
s 1
g pCube1
usemtl initialShadingGroup
f 12/19/1 9/15/2 2/2/3 4/4/4
s 2
f 11/18/5 14/21/6 4/4/7 6/6/8
s 3
f 9/16/9 13/20/10 2/10/11
s off
f 2/2/12 8/11/13 6/12/14 4/4/15
f 7/13/16 1/1/17 3/3/18 5/14/19
s 3
f 1/9/20 13/20/10 9/16/9
s 2
f 3/3/21 14/21/6 11/18/5 5/5/22
s 1
f 1/1/23 9/15/2 12/19/1 3/3/24
s 3
f 7/7/25 10/17/26 13/20/10 1/9/20
f 2/10/11 13/20/10 10/17/26 8/8/27
s 2
f 3/3/21 12/19/28 14/21/6
f 4/4/7 14/21/6 12/19/28
s 4
f 15/22/29 18/25/30 17/24/31 16/23/32
s 5
f 11/26/33 6/28/34 18/25/35 19/27/36
s 6
f 16/29/37 17/31/38 20/30/39
s off
f 17/24/40 18/25/41 6/33/42 8/32/43
f 7/34/44 5/37/45 22/36/46 21/35/47
s 6
f 21/38/48 16/29/37 20/30/39
s 5
f 22/36/49 5/39/50 11/26/33 19/27/36
s 4
f 21/35/51 22/36/52 15/22/29 16/23/32
s 6
f 7/40/53 21/38/48 20/30/39 10/41/54
f 17/31/38 8/42/55 10/41/54 20/30/39
s 5
f 22/36/49 19/27/36 15/22/56
f 18/25/35 15/22/56 19/27/36
g default
v 0.367499 -1.352941 0.045061
v 0.254317 -1.352941 -0.096864
v 0.090765 -1.352941 -0.175627
v -0.090765 -1.352941 -0.175627
v -0.254317 -1.352941 -0.096864
v -0.367499 -1.352941 0.045061
v -0.407893 -1.352941 0.222040
v -0.367499 -1.352941 0.399018
v -0.254317 -1.352941 0.540943
v -0.090765 -1.352941 0.619706
v 0.090765 -1.352941 0.619706
v 0.254317 -1.352941 0.540943
v 0.367499 -1.352941 0.399018
v 0.407893 -1.352941 0.222040
v 0.367499 5.991375 -0.578592
v 0.254317 5.991375 -0.720517
v 0.090765 5.991375 -0.799280
v -0.090765 5.991375 -0.799280
v -0.254317 5.991375 -0.720517
v -0.367499 5.991375 -0.578592
v -0.407893 5.991375 -0.401614
v -0.367499 5.991375 -0.224635
v -0.254317 5.991375 -0.082710
v -0.090765 5.991375 -0.003947
v 0.090765 5.991375 -0.003947
v 0.254317 5.991375 -0.082710
v 0.367499 5.991375 -0.224635
v 0.407893 5.991375 -0.401613
v 0.000000 -1.352941 0.222040
v 0.000000 5.991375 -0.401613
v 0.367499 5.813385 -0.578592
v 0.254317 5.813385 -0.720517
v 0.090765 5.813385 -0.799280
v -0.090765 5.813385 -0.799280
v -0.254317 5.813385 -0.720517
v -0.367499 5.813385 -0.578592
v -0.407893 5.813385 -0.401614
v -0.367499 5.813385 -0.224635
v -0.254317 5.813385 -0.082710
v -0.090765 5.813385 -0.003947
v 0.090765 5.813385 -0.003947
v 0.254317 5.813385 -0.082710
v 0.367499 5.813385 -0.224635
v 0.407893 5.813385 -0.401613
v 0.367499 3.482286 -0.578592
v 0.254317 3.482286 -0.720517
v 0.090765 3.482286 -0.799280
v -0.090765 3.482286 -0.799280
v -0.254317 3.482286 -0.720517
v -0.367499 3.482286 -0.578592
v -0.407893 3.482286 -0.401614
v -0.367499 3.482286 -0.224635
v -0.254317 3.482286 -0.082710
v -0.090765 3.482286 -0.003947
v 0.090765 3.482286 -0.003947
v 0.254317 3.482286 -0.082710
v 0.367499 3.482286 -0.224635
v 0.407893 3.482286 -0.401613
v 0.367499 2.031718 -0.579994
v 0.254317 2.031718 -0.721920
v 0.090765 2.031718 -0.800682
v -0.090765 2.031718 -0.800682
v -0.254317 2.031718 -0.721920
v -0.367499 2.031718 -0.579994
v -0.407893 2.031718 -0.403016
v -0.367499 2.031718 -0.226038
v -0.254317 2.031718 -0.084112
v -0.090765 2.031718 -0.005349
v 0.090765 2.031718 -0.005349
v 0.254317 2.031718 -0.084112
v 0.367499 2.031718 -0.226038
v 0.407893 2.031718 -0.403016
vt 0.967596 0.116186
vt 0.926413 0.064543
vt 0.866901 0.035884
vt 0.800848 0.035884
vt 0.741336 0.064543
vt 0.700153 0.116186
vt 0.685455 0.180583
vt 0.700153 0.244980
vt 0.741336 0.296622
vt 0.800848 0.325282
vt 0.866901 0.325282
vt 0.926413 0.296622
vt 0.967596 0.244980
vt 0.982295 0.180583
vt 0.715138 0.329003
vt 0.732101 0.329003
vt 0.749063 0.329003
vt 0.766025 0.329003
vt 0.782988 0.329003
vt 0.799950 0.329003
vt 0.816912 0.329003
vt 0.833875 0.329003
vt 0.850837 0.329003
vt 0.867799 0.329003
vt 0.884761 0.329003
vt 0.901724 0.329003
vt 0.918686 0.329003
vt 0.935648 0.329003
vt 0.952610 0.329003
vt 0.715138 0.686104
vt 0.732101 0.686104
vt 0.749063 0.686104
vt 0.766025 0.686104
vt 0.782988 0.686104
vt 0.799950 0.686104
vt 0.816912 0.686104
vt 0.833875 0.686104
vt 0.850837 0.686104
vt 0.867799 0.686104
vt 0.884761 0.686104
vt 0.901724 0.686104
vt 0.918686 0.686104
vt 0.935648 0.686104
vt 0.952610 0.686104
vt 0.967596 0.769234
vt 0.926413 0.717591
vt 0.866901 0.688932
vt 0.800848 0.688932
vt 0.741336 0.717591
vt 0.700153 0.769234
vt 0.685455 0.833631
vt 0.700153 0.898028
vt 0.741336 0.949670
vt 0.800848 0.978330
vt 0.866901 0.978330
vt 0.926413 0.949670
vt 0.967596 0.898028
vt 0.982295 0.833631
vt 0.833875 0.174646
vt 0.833875 0.827694
vt 0.952610 0.677449
vt 0.715138 0.677449
vt 0.732101 0.677449
vt 0.749063 0.677449
vt 0.766025 0.677449
vt 0.782988 0.677449
vt 0.799950 0.677449
vt 0.816912 0.677449
vt 0.833875 0.677449
vt 0.850837 0.677449
vt 0.867799 0.677449
vt 0.884761 0.677449
vt 0.901724 0.677449
vt 0.918686 0.677449
vt 0.935648 0.677449
vt 0.952610 0.564105
vt 0.715138 0.564105
vt 0.732101 0.564105
vt 0.749063 0.564105
vt 0.766025 0.564105
vt 0.782988 0.564105
vt 0.799950 0.564105
vt 0.816912 0.564105
vt 0.833875 0.564105
vt 0.850837 0.564105
vt 0.867799 0.564105
vt 0.884761 0.564105
vt 0.901724 0.564105
vt 0.918686 0.564105
vt 0.935648 0.564105
vt 0.952610 0.493574
vt 0.715138 0.493574
vt 0.732101 0.493574
vt 0.749063 0.493574
vt 0.766025 0.493574
vt 0.782988 0.493574
vt 0.799950 0.493574
vt 0.816912 0.493574
vt 0.833875 0.493574
vt 0.850837 0.493574
vt 0.867799 0.493574
vt 0.884761 0.493574
vt 0.901724 0.493574
vt 0.918686 0.493574
vt 0.935648 0.493574
vn 0.900969 0.000000 -0.433884
vn 0.623490 -0.000000 -0.781831
vn 0.623490 -0.000000 -0.781831
vn 0.900969 0.000000 -0.433884
vn 0.222521 -0.000000 -0.974928
vn 0.222521 -0.000000 -0.974928
vn -0.222521 0.000000 -0.974928
vn -0.222521 0.000000 -0.974928
vn -0.623490 0.000000 -0.781832
vn -0.623489 0.000000 -0.781832
vn -0.900969 0.000000 -0.433884
vn -0.900969 0.000000 -0.433884
vn -1.000000 -0.000000 -0.000000
vn -1.000000 0.000000 -0.000000
vn -0.900969 -0.000000 0.433884
vn -0.900969 0.000000 0.433883
vn -0.623490 0.000000 0.781831
vn -0.623490 0.000000 0.781831
vn -0.222521 0.000000 0.974928
vn -0.222521 0.000000 0.974928
vn 0.222521 0.000000 0.974928
vn 0.222521 0.000000 0.974928
vn 0.623490 0.000000 0.781832
vn 0.623489 0.000000 0.781832
vn 0.900969 0.000000 0.433884
vn 0.900969 0.000000 0.433884
vn 1.000000 0.000000 0.000000
vn 1.000000 0.000000 0.000000
vn 0.000000 -1.000000 -0.000001
vn 0.000000 -1.000000 -0.000001
vn 0.000000 -1.000000 -0.000000
vn 0.000000 -1.000000 0.000000
vn 0.000000 -1.000000 0.000000
vn 0.000000 -1.000000 0.000000
vn 0.000000 -1.000000 -0.000002
vn 0.000000 -1.000000 -0.000002
vn 0.000000 -1.000000 0.000000
vn 0.000000 -1.000000 0.000000
vn 0.000000 -1.000000 0.000000
vn 0.000000 -1.000000 0.000000
vn 0.000000 -1.000000 0.000000
vn 0.000000 -1.000000 0.000000
vn 0.000000 -1.000000 0.000000
vn 0.000000 1.000000 0.000000
vn 0.000000 1.000000 0.000000
vn 0.000000 1.000000 -0.000000
vn 0.000000 1.000000 0.000000
vn 0.000000 1.000000 0.000000
vn 0.000000 1.000000 0.000000
vn 0.000000 1.000000 -0.000002
vn 0.000000 1.000000 -0.000002
vn 0.000000 1.000000 0.000000
vn 0.000000 1.000000 0.000000
vn 0.000000 1.000000 0.000000
vn 0.000000 1.000000 0.000000
vn 0.000000 1.000000 0.000000
vn 0.000000 1.000000 0.000000
vn 0.000000 1.000000 0.000000
vn 0.900989 0.000161 -0.433841
vn 0.623516 0.000290 -0.781811
vn 0.222533 0.000362 -0.974925
vn -0.222532 0.000362 -0.974925
vn -0.623515 0.000290 -0.781811
vn -0.900989 0.000161 -0.433841
vn -1.000000 -0.000000 0.000052
vn -0.900948 -0.000161 0.433926
vn -0.623464 -0.000290 0.781852
vn -0.222510 -0.000362 0.974930
vn 0.222509 -0.000362 0.974930
vn 0.623464 -0.000290 0.781852
vn 0.900948 -0.000161 0.433926
vn 1.000000 -0.000000 0.000053
vn 0.892179 -0.058397 -0.447891
vn 0.611359 -0.101008 -0.784881
vn 0.216843 -0.123984 -0.968301
vn -0.216843 -0.123984 -0.968301
vn -0.611359 -0.101008 -0.784881
vn -0.892179 -0.058397 -0.447892
vn -0.999830 -0.003343 -0.018142
vn -0.906587 0.053378 0.418630
vn -0.629001 0.099664 0.770990
vn -0.224581 0.125516 0.966338
vn 0.224581 0.125517 0.966338
vn 0.629001 0.099664 0.770990
vn 0.906587 0.053378 0.418630
vn 0.999830 -0.003343 -0.018142
vn 0.908078 -0.076055 -0.411837
vn 0.629372 -0.141124 -0.764183
vn 0.224369 -0.176972 -0.958300
vn -0.224369 -0.176972 -0.958300
vn -0.629371 -0.141124 -0.764183
vn -0.908078 -0.076055 -0.411837
vn -0.999654 0.004774 0.025853
vn -0.887378 0.083726 0.453376
vn -0.604148 0.144714 0.783622
vn -0.213347 0.177421 0.960731
vn 0.213347 0.177421 0.960731
vn 0.604148 0.144714 0.783622
vn 0.887378 0.083726 0.453376
vn 0.999654 0.004774 0.025854
s 1
g pCylinder1
usemtl initialShadingGroup
f 53/104/57 54/105/58 38/73/59 37/72/60
f 54/105/58 55/106/61 39/74/62 38/73/59
f 55/106/61 56/107/63 40/75/64 39/74/62
f 56/107/63 57/108/65 41/76/66 40/75/64
f 57/108/65 58/109/67 42/77/68 41/76/66
f 58/109/67 59/110/69 43/78/70 42/77/68
f 59/110/69 60/111/71 44/79/72 43/78/70
f 60/111/71 61/112/73 45/80/74 44/79/72
f 61/112/73 62/113/75 46/81/76 45/80/74
f 62/113/75 63/114/77 47/82/78 46/81/76
f 63/114/77 64/115/79 48/83/80 47/82/78
f 64/115/79 65/116/81 49/84/82 48/83/80
f 65/116/81 66/117/83 50/85/84 49/84/82
f 66/117/83 53/103/57 37/86/60 50/85/84
s 2
f 24/44/85 23/43/86 51/101/87
f 25/45/88 24/44/85 51/101/87
f 26/46/89 25/45/88 51/101/87
f 27/47/90 26/46/89 51/101/87
f 28/48/91 27/47/90 51/101/87
f 29/49/92 28/48/91 51/101/87
f 30/50/93 29/49/92 51/101/87
f 31/51/94 30/50/93 51/101/87
f 32/52/95 31/51/94 51/101/87
f 33/53/96 32/52/95 51/101/87
f 34/54/97 33/53/96 51/101/87
f 35/55/98 34/54/97 51/101/87
f 36/56/99 35/55/98 51/101/87
f 23/43/86 36/56/99 51/101/87
s 3
f 37/99/100 38/98/101 52/102/102
f 38/98/101 39/97/103 52/102/102
f 39/97/103 40/96/104 52/102/102
f 40/96/104 41/95/105 52/102/102
f 41/95/105 42/94/106 52/102/102
f 42/94/106 43/93/107 52/102/102
f 43/93/107 44/92/108 52/102/102
f 44/92/108 45/91/109 52/102/102
f 45/91/109 46/90/110 52/102/102
f 46/90/110 47/89/111 52/102/102
f 47/89/111 48/88/112 52/102/102
f 48/88/112 49/87/113 52/102/102
f 49/87/113 50/100/114 52/102/102
f 50/100/114 37/99/100 52/102/102
s 1
f 67/119/115 68/120/116 54/105/58 53/104/57
f 68/120/116 69/121/117 55/106/61 54/105/58
f 69/121/117 70/122/118 56/107/63 55/106/61
f 70/122/118 71/123/119 57/108/65 56/107/63
f 71/123/119 72/124/120 58/109/67 57/108/65
f 72/124/120 73/125/121 59/110/69 58/109/67
f 73/125/121 74/126/122 60/111/71 59/110/69
f 74/126/122 75/127/123 61/112/73 60/111/71
f 75/127/123 76/128/124 62/113/75 61/112/73
f 76/128/124 77/129/125 63/114/77 62/113/75
f 77/129/125 78/130/126 64/115/79 63/114/77
f 78/130/126 79/131/127 65/116/81 64/115/79
f 79/131/127 80/132/128 66/117/83 65/116/81
f 80/132/128 67/118/115 53/103/57 66/117/83
f 81/134/129 82/135/130 68/120/116 67/119/115
f 82/135/130 83/136/131 69/121/117 68/120/116
f 83/136/131 84/137/132 70/122/118 69/121/117
f 84/137/132 85/138/133 71/123/119 70/122/118
f 85/138/133 86/139/134 72/124/120 71/123/119
f 86/139/134 87/140/135 73/125/121 72/124/120
f 87/140/135 88/141/136 74/126/122 73/125/121
f 88/141/136 89/142/137 75/127/123 74/126/122
f 89/142/137 90/143/138 76/128/124 75/127/123
f 90/143/138 91/144/139 77/129/125 76/128/124
f 91/144/139 92/145/140 78/130/126 77/129/125
f 92/145/140 93/146/141 79/131/127 78/130/126
f 93/146/141 94/147/142 80/132/128 79/131/127
f 94/147/142 81/133/129 67/118/115 80/132/128
f 23/57/143 24/58/144 82/135/130 81/134/129
f 24/58/144 25/59/145 83/136/131 82/135/130
f 25/59/145 26/60/146 84/137/132 83/136/131
f 26/60/146 27/61/147 85/138/133 84/137/132
f 27/61/147 28/62/148 86/139/134 85/138/133
f 28/62/148 29/63/149 87/140/135 86/139/134
f 29/63/149 30/64/150 88/141/136 87/140/135
f 30/64/150 31/65/151 89/142/137 88/141/136
f 31/65/151 32/66/152 90/143/138 89/142/137
f 32/66/152 33/67/153 91/144/139 90/143/138
f 33/67/153 34/68/154 92/145/140 91/144/139
f 34/68/154 35/69/155 93/146/141 92/145/140
f 35/69/155 36/70/156 94/147/142 93/146/141
f 36/70/156 23/71/143 81/133/129 94/147/142
