# This file uses centimeters as units for non-parametric coordinates.

mtllib player_hand.mtl
g default
v -3.437862 3.681205 0.250000
v -2.937862 3.681205 0.250000
v -3.437862 4.181205 0.250000
v -2.937862 4.181205 0.250000
v -3.437862 4.181205 -0.250000
v -2.937862 4.181205 -0.250000
v -3.437862 3.681205 -0.250000
v -2.937862 3.681205 -0.250000
v -2.850362 3.931205 0.337500
v -3.187862 4.268705 0.337500
v -3.525362 4.268705 0.000000
v -2.850362 4.268705 0.000000
v -3.187862 4.268705 -0.337500
v -3.525362 3.931205 -0.337500
v -2.850362 3.931205 -0.337500
v -3.187862 3.593705 -0.337500
v -3.525362 3.593705 0.000000
v -2.850362 3.593705 0.000000
v -3.187862 3.593705 0.337500
v -3.525362 3.931205 0.337500
v -3.187862 3.931205 0.450000
v -3.187862 4.381205 0.000000
v -3.187862 3.931205 -0.450000
v -3.187862 3.481205 0.000000
v -2.737862 3.931205 0.000000
v -3.637862 3.931205 0.000000
vt 0.041359 0.909201
vt 0.050767 0.909201
vt 0.050767 0.918609
vt 0.041359 0.918609
vt 0.060175 0.909201
vt 0.060175 0.918609
vt 0.060175 0.928017
vt 0.050767 0.928017
vt 0.041359 0.928017
vt 0.050767 0.937425
vt 0.041359 0.937425
vt 0.060175 0.937425
vt 0.060175 0.946833
vt 0.050767 0.946833
vt 0.041359 0.946833
vt 0.050767 0.956241
vt 0.041359 0.956241
vt 0.060175 0.956241
vt 0.060175 0.965649
vt 0.050767 0.965649
vt 0.041359 0.965649
vt 0.050767 0.975057
vt 0.041359 0.975057
vt 0.060175 0.975057
vt 0.060175 0.984465
vt 0.050767 0.984465
vt 0.041359 0.984465
vt 0.069583 0.909201
vt 0.069583 0.918609
vt 0.078991 0.909201
vt 0.078991 0.918609
vt 0.078991 0.928017
vt 0.069583 0.928017
vt 0.022543 0.909201
vt 0.031951 0.909201
vt 0.031951 0.918609
vt 0.022543 0.918609
vt 0.031951 0.928017
vt 0.022543 0.928017
vn -0.577350 -0.577350 0.577350
vn -0.000000 -0.707107 0.707107
vn -0.000000 0.000000 1.000000
vn -0.707107 0.000000 0.707107
vn 0.577350 -0.577350 0.577350
vn 0.707107 0.000000 0.707107
vn 0.577350 0.577350 0.577350
vn -0.000000 0.707107 0.707107
vn -0.577350 0.577350 0.577350
vn 0.000000 1.000000 -0.000000
vn -0.707107 0.707107 0.000000
vn 0.707107 0.707107 -0.000000
vn 0.577350 0.577350 -0.577350
vn -0.000000 0.707107 -0.707107
vn -0.577350 0.577350 -0.577350
vn -0.000000 0.000000 -1.000000
vn -0.707107 0.000000 -0.707107
vn 0.707107 0.000000 -0.707107
vn 0.577350 -0.577350 -0.577350
vn -0.000000 -0.707107 -0.707107
vn -0.577350 -0.577350 -0.577350
vn 0.000000 -1.000000 0.000000
vn -0.707107 -0.707107 0.000000
vn 0.707107 -0.707107 0.000000
vn 1.000000 0.000000 0.000000
vn -1.000000 0.000000 0.000000
s 1
g pCube8
usemtl initialShadingGroup
f 1/1/1 19/2/2 21/3/3 20/4/4
f 19/2/2 2/5/5 9/6/6 21/3/3
f 21/3/3 9/6/6 4/7/7 10/8/8
f 20/4/4 21/3/3 10/8/8 3/9/9
f 3/9/9 10/8/8 22/10/10 11/11/11
f 10/8/8 4/7/7 12/12/12 22/10/10
f 22/10/10 12/12/12 6/13/13 13/14/14
f 11/11/11 22/10/10 13/14/14 5/15/15
f 5/15/15 13/14/14 23/16/16 14/17/17
f 13/14/14 6/13/13 15/18/18 23/16/16
f 23/16/16 15/18/18 8/19/19 16/20/20
f 14/17/17 23/16/16 16/20/20 7/21/21
f 7/21/21 16/20/20 24/22/22 17/23/23
f 16/20/20 8/19/19 18/24/24 24/22/22
f 24/22/22 18/24/24 2/25/5 19/26/2
f 17/23/23 24/22/22 19/26/2 1/27/1
f 2/5/5 18/28/24 25/29/25 9/6/6
f 18/28/24 8/30/19 15/31/18 25/29/25
f 25/29/25 15/31/18 6/32/13 12/33/12
f 9/6/6 25/29/25 12/33/12 4/7/7
f 7/34/21 17/35/23 26/36/26 14/37/17
f 17/35/23 1/1/1 20/4/4 26/36/26
f 26/36/26 20/4/4 3/9/9 11/38/11
f 14/37/17 26/36/26 11/38/11 5/39/15
