# This file uses centimeters as units for non-parametric coordinates.

mtllib wing.mtl
g default
v -0.890355 1.456251 0.423315
v -0.890355 1.445941 0.430829
v -1.093094 1.424439 0.401327
v -1.093094 1.434749 0.393813
v -1.813968 1.297503 0.205506
v -1.777369 1.179010 0.042928
v -1.537498 1.226120 0.107566
v -1.578989 1.360450 0.291872
v -2.071333 1.107825 -0.033080
v -2.071333 1.118135 -0.040595
v -1.978262 1.219337 0.098259
v -1.978262 1.209027 0.105774
v -1.578989 1.350140 0.299386
v -1.537498 1.215810 0.115080
v -1.777369 1.168700 0.050443
v -1.813968 1.287193 0.213021
v -1.643670 0.746146 -0.550978
v -1.643670 0.735836 -0.543463
v -1.399989 0.770612 -0.495749
v -1.399989 0.780922 -0.503264
v -1.434146 0.881199 -0.344020
v -1.678707 0.849273 -0.387823
v -1.732282 1.022726 -0.149839
v -1.489642 1.060870 -0.097503
v -1.983174 0.822401 -0.424693
v -1.983174 0.832711 -0.432207
v -2.053475 0.972613 -0.240256
v -2.053475 0.962303 -0.232742
v -1.732282 1.033036 -0.157353
v -1.678707 0.859583 -0.395338
v -1.434146 0.891509 -0.351535
v -1.489642 1.071180 -0.105018
v -0.595802 1.180492 0.044962
v -0.595802 1.170182 0.052477
v -0.360221 1.431666 0.411243
v -0.360221 1.441976 0.403729
v -1.196769 0.946693 -0.275819
v -1.249024 1.115872 -0.043699
v -1.297883 1.274059 0.173340
v -1.338255 1.404766 0.352675
v -1.338255 1.394456 0.360190
v -1.297883 1.263749 0.180854
v -1.249024 1.105562 -0.036184
v -1.196769 0.936383 -0.268304
v -1.167805 0.842610 -0.396965
v -1.167805 0.852920 -0.404479
v -1.835552 0.757300 -0.535675
v -1.835552 0.746990 -0.528160
v -0.940567 0.930621 -0.276211
v -0.761865 1.029939 -0.139942
v -0.761865 1.040249 -0.147457
v -0.940568 0.940931 -0.283725
v -0.684858 1.458509 0.448072
v -0.684858 1.468819 0.440558
v -0.781045 1.102347 -0.062256
v -0.968402 1.031049 -0.160079
v -0.640330 1.324655 0.242760
v -1.059606 1.326329 0.245056
v -0.866082 1.377665 0.315491
v -0.866147 1.367565 0.323294
v -1.059606 1.316019 0.252571
v -0.640330 1.314345 0.250275
v -0.968402 1.020739 -0.152565
v -0.781131 1.092316 -0.054359
v -1.012519 1.173880 0.035890
v -0.823563 1.240006 0.126618
v -1.012519 1.163570 0.043405
v -0.823563 1.229696 0.134132
vt 0.246068 0.128848
vt 0.260854 0.128848
vt 0.260854 0.010561
vt 0.246068 0.010561
vt 0.260854 0.217562
vt 0.260854 0.187991
vt 0.231282 0.187991
vt 0.231282 0.217562
vt 0.231282 0.365420
vt 0.260854 0.365420
vt 0.260854 0.247134
vt 0.231282 0.247134
vt 0.260854 0.424563
vt 0.260854 0.394992
vt 0.231282 0.394992
vt 0.231282 0.424563
vt 0.319997 0.128848
vt 0.349568 0.128848
vt 0.349568 0.010561
vt 0.319997 0.010561
vt 0.053853 0.128848
vt 0.083424 0.128848
vt 0.083424 0.010561
vt 0.053853 0.010561
vt 0.172139 0.424563
vt 0.201710 0.424563
vt 0.201710 0.394992
vt 0.172139 0.394992
vt 0.172139 0.365420
vt 0.201710 0.365420
vt 0.201710 0.247134
vt 0.172139 0.247134
vt 0.201710 0.217562
vt 0.201710 0.187991
vt 0.172139 0.187991
vt 0.172139 0.217562
vt 0.172139 0.128848
vt 0.201710 0.128848
vt 0.201710 0.010561
vt 0.172139 0.010561
vt 0.201710 0.158419
vt 0.172139 0.158419
vt 0.260854 0.158419
vt 0.231282 0.158419
vt 0.290425 0.128848
vt 0.290425 0.010561
vt 0.260854 0.454135
vt 0.231282 0.454135
vt 0.201710 0.454135
vt 0.172139 0.454135
vt 0.112996 0.128848
vt 0.112996 0.010561
vt 0.142567 0.424563
vt 0.142567 0.454135
vt 0.142567 0.394992
vt 0.142567 0.247134
vt 0.142567 0.365420
vt 0.142567 0.187991
vt 0.142567 0.217562
vt 0.142567 0.158419
vt 0.142567 0.010561
vt 0.142567 0.128848
vt 0.157353 0.128848
vt 0.157353 0.010561
vt 0.231282 0.128848
vt 0.231282 0.010561
vt 0.379140 0.128848
vt 0.379140 0.010561
vt 0.024281 0.010561
vt 0.024281 0.128848
vt 0.172139 0.147243
vt 0.172139 0.138045
vt 0.201710 0.138302
vt 0.231282 0.138045
vt 0.231282 0.147243
vt 0.246068 0.483706
vt 0.260854 0.483706
vt 0.231282 0.465311
vt 0.231282 0.474509
vt 0.201710 0.483706
vt 0.231282 0.483706
vt 0.201710 0.474253
vt 0.172139 0.483706
vt 0.142567 0.483706
vt 0.157353 0.483706
vt 0.172139 0.474509
vt 0.172139 0.465311
vt 0.201710 0.150816
vt 0.201710 0.144559
vt 0.201710 0.461738
vt 0.201710 0.467996
vn -0.140290 0.583173 0.800143
vn -0.177215 0.579673 0.795345
vn -0.177215 0.579673 0.795345
vn -0.140290 0.583173 0.800143
vn 0.000000 0.808133 -0.589001
vn 0.000000 0.808133 -0.589001
vn 0.000000 0.808133 -0.589001
vn 0.000000 0.808133 -0.589001
vn -0.984259 0.104094 0.142821
vn -0.879289 0.280537 0.384903
vn -0.879289 0.280537 0.384903
vn -0.984260 0.104093 0.142819
vn -0.000000 -0.808133 0.589001
vn -0.000000 -0.808133 0.589001
vn -0.000000 -0.808133 0.589000
vn -0.000000 -0.808133 0.589001
vn -0.357513 0.550073 0.754721
vn -0.514521 0.505057 0.692954
vn -0.514521 0.505057 0.692954
vn -0.357513 0.550073 0.754721
vn 0.091692 -0.586523 -0.804726
vn 0.355993 -0.550420 -0.755187
vn 0.355993 -0.550420 -0.755187
vn 0.091690 -0.586523 -0.804726
vn 0.000000 -0.808133 0.589000
vn -0.000000 -0.808133 0.589000
vn -0.000000 -0.808133 0.589000
vn -0.000000 -0.808133 0.589001
vn -0.858952 -0.301611 -0.413803
vn -0.983851 -0.105428 -0.144642
vn -0.983851 -0.105428 -0.144642
vn -0.858954 -0.301609 -0.413801
vn -0.000000 0.808133 -0.589000
vn 0.000000 0.808133 -0.589000
vn 0.000000 0.808133 -0.589000
vn -0.000000 0.808133 -0.589001
vn 0.861692 -0.298879 -0.410071
vn 0.983852 0.105423 0.144642
vn 0.983851 0.105427 0.144647
vn 0.861692 -0.298879 -0.410071
vn 0.000000 0.808133 -0.589000
vn -0.000000 0.808133 -0.589000
vn 0.000000 0.808133 -0.589001
vn 0.000000 0.808133 -0.589001
vn -0.251281 0.570101 0.782204
vn -0.251281 0.570101 0.782204
vn -0.000000 -0.808133 0.589001
vn -0.000000 -0.808133 0.589001
vn 0.000000 -0.808133 0.589000
vn 0.000000 -0.808133 0.589000
vn 0.508986 -0.506999 -0.695619
vn 0.508986 -0.506999 -0.695619
vn 0.000000 -0.808133 0.589000
vn 0.000000 -0.808133 0.589000
vn 0.000000 -0.808133 0.589000
vn -0.655204 -0.444972 -0.610498
vn -0.655204 -0.444972 -0.610498
vn 0.000000 0.808133 -0.589000
vn -0.000000 0.808133 -0.589001
vn -0.000000 0.808133 -0.589000
vn 0.686292 -0.428395 -0.587776
vn 0.686292 -0.428395 -0.587776
vn 0.762818 -0.380855 -0.522549
vn 0.762818 -0.380856 -0.522549
vn 0.045668 0.588389 0.807287
vn 0.045668 0.588389 0.807287
vn 0.000000 -0.808133 0.589000
vn -0.000000 -0.808133 0.589001
vn 0.000000 -0.808133 0.589001
vn 0.000000 -0.808133 0.589000
vn -0.000000 -0.808133 0.589001
vn -0.628366 0.458196 0.628659
vn -0.628366 0.458196 0.628659
vn -0.000000 0.808133 -0.589000
vn 0.000000 0.808133 -0.589001
vn -0.000000 0.808133 -0.589000
vn -0.000000 0.808133 -0.589000
vn -0.000000 0.808132 -0.589001
vn -0.098210 -0.586153 -0.804226
vn -0.098210 -0.586153 -0.804226
vn -0.000000 0.808133 -0.589000
vn -0.000000 0.808133 -0.589000
vn -0.000000 0.808133 -0.589000
vn -0.000000 0.808133 -0.589000
vn 0.000000 0.808133 -0.589001
vn 0.000000 0.808133 -0.589001
vn 0.000000 0.808133 -0.589000
vn 0.000000 0.808133 -0.589001
vn 0.000000 0.808133 -0.589001
vn -0.000000 0.808133 -0.589001
vn -0.000000 0.808133 -0.589001
vn -0.000000 0.808133 -0.589001
vn -0.203301 0.576698 0.791257
vn -0.203301 0.576698 0.791257
vn 0.000000 -0.808133 0.589000
vn 0.000000 -0.808133 0.589000
vn 0.000000 -0.808133 0.589001
vn 0.000000 -0.808133 0.589001
vn 0.000000 -0.808132 0.589001
vn -0.000000 -0.808133 0.589001
vn -0.000000 -0.808133 0.589001
vn 0.000000 -0.808133 0.589001
vn 0.000000 -0.808133 0.589000
vn 0.000000 -0.808133 0.589000
vn 0.000000 -0.808133 0.589000
vn 0.000000 -0.808133 0.589000
vn 0.549425 -0.492135 -0.675230
vn 0.549425 -0.492135 -0.675230
vn -0.000000 0.808133 -0.589001
vn -0.000000 0.808133 -0.589000
vn -0.000000 -0.808133 0.589001
vn -0.000000 -0.808133 0.589001
s 1
g polySurface112 pCube13
usemtl initialShadingGroup
f 1/1/1 4/2/2 3/3/3 2/4/4
s 2
f 5/5/5 8/6/6 7/7/7 6/8/8
s 3
f 9/9/9 12/10/10 11/11/11 10/12/12
s 4
f 13/13/13 16/14/14 15/15/15 14/16/16
s 5
f 8/17/17 5/18/18 16/19/19 13/20/20
s 6
f 17/21/21 20/22/22 19/23/23 18/24/24
s 4
f 21/25/25 24/26/26 23/27/27 22/28/28
s 3
f 25/29/29 28/30/30 27/31/31 26/32/32
s 2
f 29/33/33 32/34/34 31/35/35 30/36/36
s 1
f 33/37/37 36/38/38 35/39/39 34/40/40
s 2
f 31/35/35 32/34/34 38/41/41 37/42/42
f 8/6/6 40/43/43 39/44/44 7/7/7
s 5
f 40/45/45 8/17/17 13/20/20 41/46/46
s 4
f 41/47/47 13/13/13 14/16/16 42/48/48
f 43/49/49 24/26/26 21/25/25 44/50/50
s 6
f 20/22/22 46/51/51 45/52/52 19/23/23
s 4
f 19/53/53 45/54/54 44/50/50 21/25/25
f 18/55/55 19/53/53 21/25/25 22/28/28
s 3
f 47/56/56 48/57/57 25/29/29 26/32/32
s 2
f 20/58/58 17/59/59 30/36/36 31/35/35
f 46/60/60 20/58/58 31/35/35 37/42/42
s 1
f 49/61/61 52/62/62 51/63/63 50/64/64
s 4
f 42/48/48 14/16/16 24/26/26 43/49/49
f 23/27/27 24/26/26 14/16/16 15/15/15
s 3
f 28/30/30 9/9/9 10/12/12 27/31/31
s 2
f 6/8/8 7/7/7 32/34/34 29/33/33
f 38/41/41 32/34/34 7/7/7 39/44/44
s 1
f 36/38/38 54/65/65 53/66/66 35/39/39
s 4
f 48/57/67 18/55/55 22/28/28 25/29/68
f 23/27/27 28/30/69 25/29/68 22/28/28
f 9/9/70 28/30/69 23/27/27 15/15/15
f 16/14/14 12/10/71 9/9/70 15/15/15
s 5
f 5/18/18 11/67/72 12/68/73 16/19/19
s 2
f 10/12/74 11/11/75 5/5/5 6/8/8
f 27/31/76 10/12/74 6/8/8 29/33/33
f 26/32/77 27/31/76 29/33/33 30/36/36
f 17/59/59 47/56/78 26/32/77 30/36/36
s 6
f 48/69/79 47/70/80 17/21/21 18/24/24
s 2
f 52/62/81 56/71/82 55/72/83 51/63/84
f 57/73/85 36/38/86 33/37/87
f 54/65/88 36/38/86 57/73/85
f 4/2/89 1/1/90 59/74/91 58/75/92
s 5
f 3/3/93 4/2/94 40/45/45 41/46/46
s 4
f 2/76/95 3/77/96 61/78/97 60/79/98
f 35/80/99 53/81/100 62/82/101
f 34/83/102 35/80/99 62/82/101
f 49/84/103 50/85/104 64/86/105 63/87/106
s 6
f 46/51/51 52/62/107 49/61/108 45/52/52
s 2
f 40/43/43 4/2/89 58/75/92 39/44/44
f 65/88/109 38/41/41 39/44/44 58/75/92
f 38/41/41 65/88/109 56/71/82 37/42/42
f 52/62/81 46/60/60 37/42/42 56/71/82
f 66/89/110 65/88/109 58/75/92 59/74/91
f 65/88/109 66/89/110 55/72/83 56/71/82
s 4
f 45/54/54 49/84/103 63/87/106 44/50/50
f 67/90/111 43/49/49 44/50/50 63/87/106
f 61/78/97 42/48/48 43/49/49 67/90/111
f 3/77/96 41/47/47 42/48/48 61/78/97
f 68/91/112 67/90/111 63/87/106 64/86/105
f 60/79/98 61/78/97 67/90/111 68/91/112
s 2
f 55/72/83 33/37/87 51/63/84
f 66/89/110 57/73/85 33/37/87 55/72/83
f 54/65/88 57/73/85 66/89/110 59/74/91
f 1/1/90 54/65/88 59/74/91
s 1
f 54/65/65 1/1/1 2/4/4 53/66/66
s 4
f 53/81/100 2/76/95 60/79/98
f 53/81/100 60/79/98 68/91/112 62/82/101
f 34/83/102 62/82/101 68/91/112 64/86/105
f 50/85/104 34/83/102 64/86/105
s 1
f 51/63/63 33/37/37 34/40/40 50/64/64
